<svg width="24" height="24" viewBox="0 0 24 24" fill="none" xmlns="http://www.w3.org/2000/svg">
<path d="M17.1152 15.3582C16.8445 15.6642 16.5604 15.9665 16.2634 16.2635C11.9676 20.5593 6.58573 22.1422 4.24258 19.7991C2.63618 18.1926 2.87508 15.158 4.56834 12.0242M6.88955 8.72526C7.17126 8.40495 7.4676 8.08875 7.77812 7.77824C12.0739 3.48247 17.4558 1.89956 19.7989 4.2427C21.4064 5.85021 21.1661 8.88795 19.4697 12.024M16.2634 7.77824C20.5592 12.074 22.1421 17.4559 19.7989 19.7991C17.4558 22.1422 12.0739 20.5593 7.77812 16.2635C3.48235 11.9678 1.89944 6.58585 4.24258 4.2427C6.58573 1.89956 11.9676 3.48247 16.2634 7.77824ZM12.9999 12C12.9999 12.5523 12.5522 13 11.9999 13C11.4477 13 10.9999 12.5523 10.9999 12C10.9999 11.4477 11.4477 11 11.9999 11C12.5522 11 12.9999 11.4477 12.9999 12Z" stroke="#1A1A1A" stroke-opacity="0.8" stroke-width="2" stroke-linecap="round" stroke-linejoin="round"/>
</svg>
