<svg width="24" height="24" viewBox="0 0 24 24" fill="none" xmlns="http://www.w3.org/2000/svg">
<path fill-rule="evenodd" clip-rule="evenodd" d="M9.23862 4.48026C7.21139 3.88402 5.74123 4.15832 4.94972 4.94983C4.15821 5.74134 3.88391 7.2115 4.48015 9.23873C5.06425 11.2246 6.43237 13.5035 8.48525 15.5564C9.62376 16.6949 10.8318 17.6228 12.0208 18.3232C13.2098 17.6228 14.4178 16.6949 15.5563 15.5564C15.839 15.2738 16.109 14.9864 16.3662 14.6957C16.7321 14.282 17.364 14.2433 17.7777 14.6091C18.1914 14.975 18.2302 15.607 17.8643 16.0207C17.58 16.3421 17.282 16.6592 16.9705 16.9706C16.067 17.8742 15.112 18.6687 14.139 19.341C14.3634 19.4238 14.5849 19.4974 14.803 19.5615C16.8302 20.1578 18.3004 19.8835 19.0919 19.092C19.8834 18.3005 20.1577 16.8303 19.5614 14.8031C19.3509 14.0872 19.0384 13.3332 18.6287 12.5655C18.6014 12.5228 18.5773 12.4783 18.5568 12.4324C17.8344 11.1121 16.8264 9.75549 15.5563 8.48536C14.4178 7.34686 13.2098 6.41897 12.0208 5.71861C10.8318 6.41897 9.62376 7.34686 8.48525 8.48537C8.18979 8.78083 7.90806 9.08145 7.64048 9.38569C7.27575 9.8004 6.64388 9.84091 6.22917 9.47618C5.81446 9.11144 5.77394 8.47958 6.13868 8.06486C6.43452 7.72848 6.74547 7.39672 7.07104 7.07115C7.9746 6.1676 8.92961 5.37305 9.90258 4.70085C9.67819 4.61796 9.45664 4.54439 9.23862 4.48026ZM12.0208 3.44357C11.273 3.07099 10.5288 2.77501 9.80295 2.56153C7.47951 1.87817 5.08715 1.98398 3.53551 3.53562C1.98387 5.08726 1.87806 7.47962 2.56142 9.80306C2.77491 10.5289 3.07089 11.2731 3.44348 12.0209C2.69374 13.5258 2.2422 15.0401 2.16948 16.4323C2.089 17.973 2.47418 19.4449 3.53551 20.5062C5.08715 22.0578 7.47951 22.1636 9.80295 21.4803C10.5288 21.2668 11.273 20.9708 12.0208 20.5982C12.7686 20.9708 13.5128 21.2668 14.2386 21.4803C16.5621 22.1636 18.9544 22.0578 20.5061 20.5062C22.0577 18.9545 22.1635 16.5622 21.4802 14.2387C21.2667 13.5129 20.9707 12.7687 20.5981 12.0209C21.3473 10.5171 21.7987 9.00394 21.8719 7.61274C21.9531 6.07081 21.5681 4.59769 20.5061 3.53562C18.9544 1.98398 16.5621 1.87817 14.2386 2.56153C13.5128 2.77501 12.7686 3.07099 12.0208 3.44357ZM14.139 4.70085C15.112 5.37305 16.067 6.1676 16.9705 7.07115C17.8741 7.97471 18.6686 8.92973 19.3409 9.90271C19.6596 9.03966 19.8367 8.22903 19.8747 7.50759C19.9359 6.34477 19.6373 5.49527 19.0919 4.94983C18.3004 4.15832 16.8302 3.88402 14.803 4.48026C14.5849 4.54439 14.3634 4.61796 14.139 4.70085ZM9.90258 19.341C8.9296 18.6687 7.97459 17.8742 7.07104 16.9706C6.16748 16.0671 5.37293 15.1121 4.70072 14.1391C4.38159 15.0031 4.20447 15.8146 4.16676 16.5366C4.10608 17.6982 4.40465 18.5469 4.94972 19.092C5.74123 19.8835 7.21139 20.1578 9.23862 19.5615C9.45664 19.4974 9.67819 19.4238 9.90258 19.341ZM9.99997 12C9.99997 10.8954 10.8954 10 12 10C13.1045 10 14 10.8954 14 12C14 13.1046 13.1045 14 12 14C10.8954 14 9.99997 13.1046 9.99997 12Z" fill="currentColor" fill-opacity="0.8"/>
</svg>
