<svg width="20" height="20" viewBox="0 0 20 20" fill="none" xmlns="http://www.w3.org/2000/svg">
<path fill-rule="evenodd" clip-rule="evenodd" d="M17.3017 3.68692C17.4051 3.0665 16.8672 2.52862 16.2468 2.63203L13.2277 3.13522C13.8797 3.63951 14.5107 4.19392 15.1143 4.79754C15.7263 5.40954 16.2878 6.04974 16.7976 6.71138L17.3017 3.68692ZM16.2383 8.49586C15.6142 7.57593 14.8853 6.68987 14.0537 5.8582C13.2298 5.03434 12.3526 4.31136 11.4419 3.69119C11.438 3.69527 11.4341 3.69937 11.4303 3.70351L8.26917 7.08261C8.26333 7.08908 8.25737 7.09545 8.25132 7.10169L5.91938 9.59446C4.93237 10.6495 4.81443 12.2123 5.55066 13.3883L10.3027 8.6363C10.5956 8.3434 11.0705 8.3434 11.3634 8.6363C11.6563 8.92919 11.6563 9.40407 11.3634 9.69696L6.62756 14.4328C7.79342 15.1134 9.30859 14.9786 10.3393 14.0144L12.8287 11.6855C12.8371 11.6773 12.8458 11.6692 12.8546 11.6613L16.2302 8.50348C16.2329 8.50095 16.2356 8.49841 16.2383 8.49586ZM14.2173 12.4406L17.255 9.59888C17.7022 9.18048 17.9992 8.62637 18.0999 8.02224L18.7813 3.93352C19.0539 2.29787 17.6359 0.879827 16.0002 1.15244L11.9115 1.83389C11.3074 1.93458 10.7533 2.23151 10.3349 2.67877L7.49312 5.71649L5.55362 5.06999C5.0294 4.89525 4.45201 5.00645 4.03019 5.36338L1.64922 7.37804C0.723087 8.16169 0.986202 9.65304 2.12459 10.0724L3.70233 10.6537C3.39315 11.9506 3.65168 13.3526 4.47139 14.4676L2.38604 16.553C2.09315 16.8459 2.09315 17.3207 2.38604 17.6136C2.67894 17.9065 3.15381 17.9065 3.4467 17.6136L5.54281 15.5175C6.64505 16.2936 8.01278 16.5336 9.28009 16.2314L9.86131 17.809C10.2807 18.9474 11.7721 19.2105 12.5557 18.2844L14.5704 15.9034C14.9273 15.4816 15.0385 14.9042 14.8638 14.38L14.2173 12.4406ZM13.012 13.5681L11.364 15.1098C11.1444 15.3152 10.91 15.4952 10.6644 15.6498L11.2688 17.2904C11.2763 17.3108 11.2853 17.3204 11.2927 17.3264C11.302 17.3339 11.3155 17.3407 11.3325 17.3437C11.3495 17.3467 11.3646 17.345 11.3758 17.3411C11.3849 17.338 11.3966 17.332 11.4106 17.3155L13.4253 14.9345C13.4441 14.9123 13.4499 14.8819 13.4407 14.8543L13.012 13.5681ZM4.28394 9.26943C4.43855 9.02379 4.61854 8.78932 4.82397 8.56972L6.36559 6.92178L5.07928 6.49301C5.05169 6.48382 5.0213 6.48967 4.9991 6.50846L2.61813 8.52312C2.60158 8.53712 2.5956 8.54882 2.59249 8.55791C2.58865 8.56913 2.5869 8.58422 2.5899 8.60121C2.59289 8.61821 2.59971 8.63179 2.60715 8.64102C2.61319 8.64849 2.62281 8.65743 2.64315 8.66493L4.28394 9.26943Z" fill="currentColor" fill-opacity="0.8"/>
</svg>
