<svg width="14" height="14" viewBox="0 0 14 14" fill="none" xmlns="http://www.w3.org/2000/svg">
<path fill-rule="evenodd" clip-rule="evenodd" d="M7.82227 0.616303C8.0666 0.722364 8.21176 0.976805 8.17873 1.2411L7.67969 5.23335L11.2749 5.23335C11.4151 5.23332 11.5582 5.23329 11.6754 5.2439C11.786 5.25391 12.001 5.28055 12.1877 5.43149C12.4009 5.60374 12.523 5.86444 12.5189 6.13846C12.5153 6.37858 12.3981 6.5608 12.335 6.65218C12.2681 6.74894 12.1765 6.85886 12.0867 6.96658L6.87762 13.2175C6.70711 13.4221 6.42211 13.4898 6.17778 13.3837C5.93345 13.2777 5.78829 13.0232 5.82133 12.7589L6.32036 8.76668H2.74638C2.73931 8.76668 2.73224 8.76669 2.72515 8.76669C2.5849 8.76671 2.4418 8.76674 2.32469 8.75614C2.21408 8.74612 1.99909 8.71948 1.81231 8.56854C1.59915 8.39629 1.47705 8.13559 1.48118 7.86157C1.4848 7.62145 1.60197 7.43924 1.66508 7.34786C1.73192 7.25109 1.82355 7.14117 1.91336 7.03345C1.91789 7.02801 1.92242 7.02258 1.92694 7.01715L7.12243 0.782573C7.29294 0.577953 7.57795 0.510242 7.82227 0.616303ZM3.03105 7.56668H7.00003C7.17212 7.56668 7.33594 7.64058 7.44983 7.7696C7.56373 7.89862 7.61674 8.07033 7.59539 8.2411L7.2659 10.8771L10.969 6.43335H7.00003C6.82793 6.43335 6.66411 6.35945 6.55022 6.23043C6.43632 6.10141 6.38331 5.9297 6.40466 5.75893L6.73416 3.12296L3.03105 7.56668Z" fill="currentColor" fill-opacity="0.4"/>
</svg>
