<svg width="20" height="20" viewBox="0 0 20 20" fill="none" xmlns="http://www.w3.org/2000/svg">
<path fill-rule="evenodd" clip-rule="evenodd" d="M8.33335 3.25C6.67649 3.25 5.33335 4.59315 5.33335 6.25C5.33335 7.90685 6.67649 9.25 8.33335 9.25C9.9902 9.25 11.3333 7.90685 11.3333 6.25C11.3333 4.59315 9.9902 3.25 8.33335 3.25ZM3.83335 6.25C3.83335 3.76472 5.84807 1.75 8.33335 1.75C10.8186 1.75 12.8333 3.76472 12.8333 6.25C12.8333 8.73528 10.8186 10.75 8.33335 10.75C5.84807 10.75 3.83335 8.73528 3.83335 6.25ZM15.303 11.9697C15.5959 11.6768 16.0708 11.6768 16.3637 11.9697L18.8637 14.4697C19.1566 14.7626 19.1566 15.2374 18.8637 15.5303L16.3637 18.0303C16.0708 18.3232 15.5959 18.3232 15.303 18.0303C15.0101 17.7374 15.0101 17.2626 15.303 16.9697L16.5227 15.75H13.3333C12.9191 15.75 12.5833 15.4142 12.5833 15C12.5833 14.5858 12.9191 14.25 13.3333 14.25H16.5227L15.303 13.0303C15.0101 12.7374 15.0101 12.2626 15.303 11.9697ZM6.11488 12.1666C6.15928 12.1667 6.20432 12.1667 6.25002 12.1667H10C10.4142 12.1667 10.75 12.5025 10.75 12.9167C10.75 13.3309 10.4142 13.6667 10 13.6667H6.25002C5.03248 13.6667 4.58997 13.6748 4.25011 13.7779C3.42447 14.0284 2.77837 14.6745 2.52792 15.5001C2.42482 15.84 2.41668 16.2825 2.41668 17.5C2.41668 17.9142 2.08089 18.25 1.66668 18.25C1.25247 18.25 0.91668 17.9142 0.91668 17.5C0.91668 17.4543 0.916666 17.4093 0.916652 17.3649C0.916335 16.3324 0.916124 15.6461 1.09251 15.0647C1.48839 13.7596 2.50964 12.7384 3.81468 12.3425C4.39614 12.1661 5.0824 12.1663 6.11488 12.1666Z" fill="currentColor" fill-opacity="0.8"/>
</svg>
