<svg width="20" height="20" viewBox="0 0 20 20" fill="none" xmlns="http://www.w3.org/2000/svg">
<path fill-rule="evenodd" clip-rule="evenodd" d="M4.16667 3.25C3.66041 3.25 3.25 3.66041 3.25 4.16667C3.25 4.67293 3.66041 5.08333 4.16667 5.08333L15.8333 5.08333C17.168 5.08333 18.25 6.16531 18.25 7.5V15.8333C18.25 17.168 17.168 18.25 15.8333 18.25H4.16667C2.83198 18.25 1.75 17.168 1.75 15.8333V4.16667C1.75 2.83198 2.83198 1.75 4.16667 1.75H14.1667C14.5809 1.75 14.9167 2.08579 14.9167 2.5C14.9167 2.91421 14.5809 3.25 14.1667 3.25H4.16667ZM3.25 6.40342V15.8333C3.25 16.3396 3.66041 16.75 4.16667 16.75H15.8333C16.3396 16.75 16.75 16.3396 16.75 15.8333V7.5C16.75 6.99374 16.3396 6.58333 15.8333 6.58333L4.16667 6.58333C3.84221 6.58333 3.53268 6.51939 3.25 6.40342ZM12.5833 11.6667C12.5833 11.0223 13.1057 10.5 13.75 10.5C14.3943 10.5 14.9167 11.0223 14.9167 11.6667C14.9167 12.311 14.3943 12.8333 13.75 12.8333C13.1057 12.8333 12.5833 12.311 12.5833 11.6667Z" fill="currentColor" fill-opacity="0.8"/>
</svg>
