<svg width="20" height="20" viewBox="0 0 20 20" fill="none" xmlns="http://www.w3.org/2000/svg">
<path fill-rule="evenodd" clip-rule="evenodd" d="M4.30383 2.58331L15.6962 2.58331C16.1377 2.5833 16.5137 2.58329 16.8224 2.60851C17.1467 2.63501 17.4622 2.69304 17.7638 2.84672C18.2185 3.07841 18.5882 3.44811 18.8199 3.90284C18.9736 4.20445 19.0316 4.51995 19.0581 4.84425C19.0833 5.15293 19.0833 5.52891 19.0833 5.97046V14.0295C19.0833 14.471 19.0833 14.847 19.0581 15.1557C19.0316 15.48 18.9736 15.7955 18.8199 16.0971C18.5882 16.5518 18.2185 16.9216 17.7638 17.1532C17.4622 17.3069 17.1467 17.365 16.8224 17.3914C16.5137 17.4167 16.1377 17.4167 15.6962 17.4166L4.3038 17.4166C3.86225 17.4167 3.48628 17.4167 3.17759 17.3914C2.85329 17.365 2.53779 17.3069 2.23618 17.1532C1.78146 16.9215 1.41175 16.5518 1.18006 16.0971C1.02638 15.7955 0.968352 15.48 0.941855 15.1557C0.916634 14.847 0.916645 14.471 0.916657 14.0295L0.916658 10.4171L0.916658 7.08381L0.916657 5.97048C0.916645 5.52892 0.916634 5.15294 0.941856 4.84424C0.968352 4.51994 1.02638 4.20445 1.18006 3.90284C1.41175 3.44811 1.78146 3.07841 2.23618 2.84671C2.53779 2.69304 2.85329 2.63501 3.17759 2.60851C3.48628 2.58329 3.86227 2.5833 4.30383 2.58331ZM2.41666 7.83331L2.41666 9.66665H4.62222C4.6419 9.66665 4.66131 9.66664 4.68048 9.66664C5.07458 9.66652 5.36258 9.66643 5.64672 9.71708C5.89786 9.76185 6.14285 9.83602 6.37664 9.93808C6.64115 10.0536 6.88073 10.2134 7.20859 10.4321C7.22453 10.4427 7.24068 10.4535 7.25705 10.4644L7.74165 10.7875C8.13769 11.0515 8.26228 11.1313 8.39013 11.1872C8.51601 11.2421 8.64793 11.2821 8.78316 11.3062C8.9205 11.3306 9.06845 11.3333 9.54443 11.3333H10.4556C10.9315 11.3333 11.0795 11.3306 11.2168 11.3062C11.352 11.2821 11.484 11.2421 11.6099 11.1872C11.7377 11.1313 11.8623 11.0515 12.2583 10.7875L12.7429 10.4644C12.7593 10.4535 12.7754 10.4427 12.7914 10.4321C13.1192 10.2134 13.3588 10.0536 13.6233 9.93808C13.8571 9.83602 14.1021 9.76185 14.3533 9.71708C14.6374 9.66643 14.9254 9.66652 15.3195 9.66664C15.3387 9.66664 15.3581 9.66665 15.3778 9.66665H17.5833V7.83331H2.41666ZM17.5833 6.33331H2.41666V5.99998C2.41666 5.52089 2.41724 5.20669 2.43687 4.96639C2.45579 4.73485 2.48859 4.63873 2.51657 4.58382C2.60445 4.41134 2.74468 4.27111 2.91717 4.18322C2.97208 4.15525 3.0682 4.12245 3.29974 4.10353C3.54003 4.0839 3.85424 4.08331 4.33333 4.08331L15.6667 4.08332C16.1457 4.08332 16.46 4.0839 16.7002 4.10353C16.9318 4.12245 17.0279 4.15525 17.0828 4.18323C17.2553 4.27111 17.3955 4.41134 17.4834 4.58382C17.5114 4.63873 17.5442 4.73485 17.5631 4.96639C17.5827 5.20669 17.5833 5.5209 17.5833 5.99998V6.33331ZM17.5833 11.1666H15.3778C14.9018 11.1666 14.7538 11.1693 14.6165 11.1938C14.4813 11.2179 14.3493 11.2579 14.2235 11.3128C14.0956 11.3686 13.971 11.4485 13.575 11.7125L13.0904 12.0356C13.074 12.0465 13.0579 12.0572 13.0419 12.0679C12.7141 12.2866 12.4745 12.4464 12.21 12.5619C11.9762 12.6639 11.7312 12.7381 11.4801 12.7829C11.1959 12.8335 10.9079 12.8334 10.5138 12.8333C10.4946 12.8333 10.4752 12.8333 10.4556 12.8333H9.54443C9.52475 12.8333 9.50534 12.8333 9.48618 12.8333C9.09207 12.8334 8.80407 12.8335 8.51993 12.7829C8.26879 12.7381 8.0238 12.6639 7.79001 12.5619C7.5255 12.4464 7.28591 12.2866 6.95805 12.0679C6.94211 12.0572 6.92597 12.0465 6.9096 12.0356L6.425 11.7125C6.02896 11.4485 5.90437 11.3686 5.77652 11.3128C5.65064 11.2579 5.51872 11.2179 5.38349 11.1938C5.24615 11.1693 5.0982 11.1666 4.62222 11.1666H2.41666V14C2.41666 14.4791 2.41724 14.7933 2.43687 15.0336C2.45579 15.2651 2.48859 15.3612 2.51657 15.4161C2.60445 15.5886 2.74468 15.7289 2.91717 15.8167C2.97208 15.8447 3.0682 15.8775 3.29974 15.8964C3.54003 15.9161 3.85424 15.9166 4.33332 15.9166L15.6667 15.9166C16.1457 15.9166 16.46 15.9161 16.7002 15.8964C16.9318 15.8775 17.0279 15.8447 17.0828 15.8167C17.2553 15.7289 17.3955 15.5886 17.4834 15.4161C17.5114 15.3612 17.5442 15.2651 17.5631 15.0336C17.5827 14.7933 17.5833 14.4791 17.5833 14V11.1666Z" fill="currentColor" fill-opacity="0.8"/>
</svg>
