<svg width="16" height="16" viewBox="0 0 16 16" fill="none" xmlns="http://www.w3.org/2000/svg">
<path fill-rule="evenodd" clip-rule="evenodd" d="M5.16786 1.20001H10.8321C11.3648 1.2 11.8124 1.19999 12.1787 1.22992C12.5617 1.26121 12.9257 1.32916 13.2712 1.50519C13.798 1.77364 14.2264 2.20199 14.4948 2.72884C14.6708 3.07433 14.7388 3.43829 14.7701 3.82127C14.8 4.18756 14.8 4.63517 14.8 5.16786V8.83217C14.8 9.36485 14.8 9.81246 14.7701 10.1788C14.7388 10.5617 14.6708 10.9257 14.4948 11.2712C14.2264 11.798 13.798 12.2264 13.2712 12.4948C12.9257 12.6709 12.5617 12.7388 12.1787 12.7701C11.8124 12.8 11.3648 12.8 10.8321 12.8H9.12249C8.6744 12.8 8.56129 12.8038 8.4603 12.8245C8.35438 12.8463 8.25189 12.8822 8.15561 12.9314C8.06379 12.9783 7.97311 13.046 7.62322 13.3259L6.01254 14.6145C5.892 14.711 5.76271 14.8145 5.6477 14.8905C5.53854 14.9627 5.30712 15.1061 5.00121 15.1065C4.65606 15.1068 4.32956 14.9499 4.11424 14.6802C3.92339 14.4411 3.89087 14.1707 3.87904 14.0404C3.86656 13.9031 3.86661 13.7375 3.86665 13.5831C3.86665 13.5744 3.86665 13.5657 3.86665 13.557V12.7889C3.65128 12.7771 3.45658 12.7532 3.27529 12.7046C2.30904 12.4457 1.5543 11.691 1.29539 10.7247C1.19925 10.3659 1.19955 9.95455 1.19994 9.43432C1.19996 9.40111 1.19999 9.36746 1.19999 9.33335L1.19999 5.16789C1.19997 4.63519 1.19996 4.18757 1.22989 3.82127C1.26118 3.43829 1.32913 3.07433 1.50517 2.72884C1.77361 2.20199 2.20196 1.77364 2.72881 1.50519C3.0743 1.32916 3.43827 1.26121 3.82125 1.22992C4.18754 1.19999 4.63516 1.2 5.16786 1.20001ZM3.95154 2.8246C3.6675 2.84781 3.53754 2.88885 3.4552 2.93081C3.2294 3.04585 3.04583 3.22943 2.93078 3.45522C2.88883 3.53756 2.84778 3.66753 2.82458 3.95156C2.80061 4.24493 2.79999 4.62676 2.79999 5.20001V9.33335C2.79999 10.0048 2.80686 10.1836 2.84088 10.3106C2.95184 10.7247 3.27529 11.0482 3.6894 11.1591C3.81636 11.1931 3.99517 11.2 4.66665 11.2C5.10848 11.2 5.46665 11.5582 5.46665 12V13.0022L6.62371 12.0765C6.64042 12.0632 6.65692 12.05 6.67324 12.0369C6.94976 11.8154 7.17278 11.6368 7.42768 11.5066C7.65235 11.3918 7.89149 11.3079 8.13863 11.2572C8.41903 11.1996 8.70476 11.1998 9.05904 11.2C9.07995 11.2 9.10109 11.2 9.12249 11.2H10.8C11.3732 11.2 11.7551 11.1994 12.0484 11.1754C12.3325 11.1522 12.4624 11.1112 12.5448 11.0692C12.7706 10.9542 12.9541 10.7706 13.0692 10.5448C13.1111 10.4625 13.1522 10.3325 13.1754 10.0485C13.1994 9.75509 13.2 9.37327 13.2 8.80001V5.20001C13.2 4.62676 13.1994 4.24493 13.1754 3.95156C13.1522 3.66753 13.1111 3.53756 13.0692 3.45522C12.9541 3.22943 12.7706 3.04585 12.5448 2.93081C12.4624 2.88885 12.3325 2.84781 12.0484 2.8246C11.7551 2.80064 11.3732 2.80001 10.8 2.80001H5.19999C4.62673 2.80001 4.24491 2.80064 3.95154 2.8246ZM3.86665 5.66668C3.86665 5.22485 4.22483 4.86668 4.66665 4.86668H7.99999C8.44181 4.86668 8.79999 5.22485 8.79999 5.66668C8.79999 6.10851 8.44181 6.46668 7.99999 6.46668H4.66665C4.22483 6.46668 3.86665 6.10851 3.86665 5.66668ZM3.86665 8.00001C3.86665 7.55819 4.22483 7.20001 4.66665 7.20001H9.99999C10.4418 7.20001 10.8 7.55819 10.8 8.00001C10.8 8.44184 10.4418 8.80001 9.99999 8.80001H4.66665C4.22483 8.80001 3.86665 8.44184 3.86665 8.00001Z" fill="currentColor" fill-opacity="0.8"/>
</svg>
