<svg width="24" height="24" viewBox="0 0 24 24" fill="none" xmlns="http://www.w3.org/2000/svg">
<path fill-rule="evenodd" clip-rule="evenodd" d="M4.56811 2C4.57873 2 4.58936 2.00001 4.60001 2.00001H8.40001C8.41065 2.00001 8.42128 2 8.4319 2C8.68429 1.99997 8.93008 1.99994 9.13824 2.01695C9.36683 2.03563 9.63656 2.07969 9.90799 2.21799C10.2843 2.40974 10.5903 2.7157 10.782 3.09202C10.9203 3.36345 10.9644 3.63318 10.9831 3.86178C11.0001 4.06994 11 4.31574 11 4.56813V8.43189C11 8.68427 11.0001 8.93007 10.9831 9.13824C10.9644 9.36683 10.9203 9.63656 10.782 9.90799C10.5903 10.2843 10.2843 10.5903 9.90799 10.782C9.63656 10.9203 9.36683 10.9644 9.13824 10.9831C8.93007 11.0001 8.68427 11 8.43189 11H4.56812C4.31574 11 4.06994 11.0001 3.86178 10.9831C3.63318 10.9644 3.36345 10.9203 3.09202 10.782C2.7157 10.5903 2.40974 10.2843 2.21799 9.90799C2.07969 9.63656 2.03563 9.36683 2.01695 9.13824C1.99994 8.93008 1.99997 8.68429 2 8.4319C2 8.42128 2.00001 8.41065 2.00001 8.40001V4.60001C2.00001 4.58936 2 4.57873 2 4.56811C1.99997 4.31572 1.99994 4.06993 2.01695 3.86178C2.03563 3.63318 2.07969 3.36345 2.21799 3.09202C2.40974 2.7157 2.7157 2.40974 3.09202 2.21799C3.36345 2.07969 3.63318 2.03563 3.86178 2.01695C4.06993 1.99994 4.31572 1.99997 4.56811 2ZM4.01145 4.01145C4.01107 4.0156 4.01069 4.02 4.01031 4.02464C4.00078 4.14122 4.00001 4.30348 4.00001 4.60001V8.40001C4.00001 8.69653 4.00078 8.85879 4.01031 8.97537C4.01069 8.98001 4.01107 8.98441 4.01145 8.98856C4.0156 8.98894 4.02 8.98932 4.02464 8.9897C4.14122 8.99923 4.30348 9.00001 4.60001 9.00001H8.40001C8.69653 9.00001 8.85879 8.99923 8.97537 8.9897C8.98001 8.98932 8.98441 8.98894 8.98856 8.98856C8.98894 8.98441 8.98932 8.98001 8.9897 8.97537C8.99923 8.85879 9.00001 8.69653 9.00001 8.40001V4.60001C9.00001 4.30348 8.99923 4.14122 8.9897 4.02464C8.98932 4.02 8.98894 4.0156 8.98856 4.01145C8.98441 4.01107 8.98001 4.01069 8.97537 4.01031C8.85879 4.00078 8.69653 4.00001 8.40001 4.00001H4.60001C4.30348 4.00001 4.14122 4.00078 4.02464 4.01031C4.02 4.01069 4.0156 4.01107 4.01145 4.01145ZM15.5681 2H19.4319C19.6843 1.99997 19.9301 1.99994 20.1382 2.01695C20.3668 2.03563 20.6366 2.07969 20.908 2.21799C21.2843 2.40974 21.5903 2.7157 21.782 3.09202C21.9203 3.36345 21.9644 3.63318 21.9831 3.86178C22.0001 4.06993 22 4.31571 22 4.56809V8.43192C22 8.6843 22.0001 8.93008 21.9831 9.13824C21.9644 9.36683 21.9203 9.63656 21.782 9.90799C21.5903 10.2843 21.2843 10.5903 20.908 10.782C20.6366 10.9203 20.3668 10.9644 20.1382 10.9831C19.9301 11.0001 19.6843 11 19.4319 11H15.5681C15.3157 11 15.0699 11.0001 14.8618 10.9831C14.6332 10.9644 14.3634 10.9203 14.092 10.782C13.7157 10.5903 13.4097 10.2843 13.218 9.90799C13.0797 9.63656 13.0356 9.36683 13.0169 9.13824C12.9999 8.93007 13 8.68428 13 8.43189V4.56812C13 4.31574 12.9999 4.06994 13.0169 3.86178C13.0356 3.63318 13.0797 3.36345 13.218 3.09202C13.4097 2.7157 13.7157 2.40974 14.092 2.21799C14.3634 2.07969 14.6332 2.03563 14.8618 2.01695C15.0699 1.99994 15.3157 1.99997 15.5681 2ZM15.0115 4.01145C15.0111 4.0156 15.0107 4.02 15.0103 4.02464C15.0008 4.14122 15 4.30348 15 4.60001V8.40001C15 8.69653 15.0008 8.85879 15.0103 8.97537C15.0107 8.98001 15.0111 8.98441 15.0115 8.98856C15.0156 8.98894 15.02 8.98932 15.0246 8.9897C15.1412 8.99923 15.3035 9.00001 15.6 9.00001H19.4C19.6965 9.00001 19.8588 8.99923 19.9754 8.9897C19.98 8.98932 19.9844 8.98893 19.9886 8.98855C19.9889 8.9844 19.9893 8.98001 19.9897 8.97537C19.9992 8.85879 20 8.69653 20 8.40001V4.60001C20 4.30348 19.9992 4.14122 19.9897 4.02464C19.9893 4.02 19.9889 4.0156 19.9885 4.01145C19.9844 4.01107 19.98 4.01069 19.9754 4.01031C19.8588 4.00078 19.6965 4.00001 19.4 4.00001H15.6C15.3035 4.00001 15.1412 4.00078 15.0246 4.01031C15.02 4.01069 15.0156 4.01107 15.0115 4.01145ZM4.56812 13H8.43189C8.68428 13 8.93007 12.9999 9.13824 13.0169C9.36683 13.0356 9.63656 13.0797 9.90799 13.218C10.2843 13.4097 10.5903 13.7157 10.782 14.092C10.9203 14.3634 10.9644 14.6332 10.9831 14.8618C11.0001 15.0699 11 15.3157 11 15.5681V19.4319C11 19.6843 11.0001 19.9301 10.9831 20.1382C10.9644 20.3668 10.9203 20.6366 10.782 20.908C10.5903 21.2843 10.2843 21.5903 9.90799 21.782C9.63656 21.9203 9.36683 21.9644 9.13824 21.9831C8.93008 22.0001 8.6843 22 8.43192 22H4.56809C4.31571 22 4.06993 22.0001 3.86178 21.9831C3.63318 21.9644 3.36345 21.9203 3.09202 21.782C2.7157 21.5903 2.40974 21.2843 2.21799 20.908C2.07969 20.6366 2.03563 20.3668 2.01695 20.1382C1.99994 19.9301 1.99997 19.6843 2 19.4319V15.5681C1.99997 15.3157 1.99994 15.0699 2.01695 14.8618C2.03563 14.6332 2.07969 14.3634 2.21799 14.092C2.40974 13.7157 2.7157 13.4097 3.09202 13.218C3.36345 13.0797 3.63318 13.0356 3.86178 13.0169C4.06994 12.9999 4.31574 13 4.56812 13ZM4.01145 15.0115C4.01107 15.0156 4.01069 15.02 4.01031 15.0246C4.00078 15.1412 4.00001 15.3035 4.00001 15.6V19.4C4.00001 19.6965 4.00078 19.8588 4.01031 19.9754C4.01069 19.98 4.01107 19.9844 4.01145 19.9885C4.0156 19.9889 4.02 19.9893 4.02464 19.9897C4.14122 19.9992 4.30348 20 4.60001 20H8.40001C8.69653 20 8.85879 19.9992 8.97537 19.9897C8.98001 19.9893 8.98441 19.9889 8.98856 19.9885C8.98894 19.9844 8.98932 19.98 8.9897 19.9754C8.99923 19.8588 9.00001 19.6965 9.00001 19.4V15.6C9.00001 15.3035 8.99923 15.1412 8.9897 15.0246C8.98932 15.02 8.98894 15.0156 8.98856 15.0115C8.98441 15.0111 8.98001 15.0107 8.97537 15.0103C8.85879 15.0008 8.69653 15 8.40001 15H4.60001C4.30348 15 4.14122 15.0008 4.02464 15.0103C4.02 15.0107 4.0156 15.0111 4.01145 15.0115ZM15.5681 13H19.4319C19.6843 13 19.9301 12.9999 20.1382 13.0169C20.3668 13.0356 20.6366 13.0797 20.908 13.218C21.2843 13.4097 21.5903 13.7157 21.782 14.092C21.9203 14.3634 21.9644 14.6332 21.9831 14.8618C22.0001 15.0699 22 15.3157 22 15.5681V19.4319C22 19.6843 22.0001 19.9301 21.9831 20.1382C21.9644 20.3668 21.9203 20.6366 21.782 20.908C21.5903 21.2843 21.2843 21.5903 20.908 21.782C20.6366 21.9203 20.3668 21.9644 20.1382 21.9831C19.9301 22.0001 19.6843 22 19.4319 22H15.5681C15.3157 22 15.0699 22.0001 14.8618 21.9831C14.6332 21.9644 14.3634 21.9203 14.092 21.782C13.7157 21.5903 13.4097 21.2843 13.218 20.908C13.0797 20.6366 13.0356 20.3668 13.0169 20.1382C12.9999 19.9301 13 19.6843 13 19.4319V15.5681C13 15.3157 12.9999 15.0699 13.0169 14.8618C13.0356 14.6332 13.0797 14.3634 13.218 14.092C13.4097 13.7157 13.7157 13.4097 14.092 13.218C14.3634 13.0797 14.6332 13.0356 14.8618 13.0169C15.0699 12.9999 15.3157 13 15.5681 13ZM15.0115 15.0115C15.0111 15.0156 15.0107 15.02 15.0103 15.0246C15.0008 15.1412 15 15.3035 15 15.6V19.4C15 19.6965 15.0008 19.8588 15.0103 19.9754C15.0107 19.98 15.0111 19.9844 15.0115 19.9885C15.0156 19.9889 15.02 19.9893 15.0246 19.9897C15.1412 19.9992 15.3035 20 15.6 20H19.4C19.6965 20 19.8588 19.9992 19.9754 19.9897C19.98 19.9893 19.9844 19.9889 19.9886 19.9885C19.9889 19.9844 19.9893 19.98 19.9897 19.9754C19.9992 19.8588 20 19.6965 20 19.4V15.6C20 15.3035 19.9992 15.1412 19.9897 15.0246C19.9893 15.02 19.9889 15.0156 19.9885 15.0115C19.9844 15.0111 19.98 15.0107 19.9754 15.0103C19.8588 15.0008 19.6965 15 19.4 15H15.6C15.3035 15 15.1412 15.0008 15.0246 15.0103C15.02 15.0107 15.0156 15.0111 15.0115 15.0115Z" fill="currentColor" fill-opacity="0.8"/>
</svg>
