<svg width="20" height="20" viewBox="0 0 20 20" fill="none" xmlns="http://www.w3.org/2000/svg">
<path fill-rule="evenodd" clip-rule="evenodd" d="M0.916656 6.66665C0.916656 4.41148 2.74483 2.58331 4.99999 2.58331H15C17.2552 2.58331 19.0833 4.41148 19.0833 6.66665C19.0833 8.04296 18.4024 9.26025 17.3591 9.99998C18.4024 10.7397 19.0833 11.957 19.0833 13.3333C19.0833 15.5885 17.2552 17.4166 15 17.4166H4.99999C2.74483 17.4166 0.916656 15.5885 0.916656 13.3333C0.916656 11.957 1.59758 10.7397 2.64092 9.99998C1.59758 9.26024 0.916656 8.04296 0.916656 6.66665ZM4.99999 10.75C3.57325 10.75 2.41666 11.9066 2.41666 13.3333C2.41666 14.76 3.57325 15.9166 4.99999 15.9166H15C16.4267 15.9166 17.5833 14.76 17.5833 13.3333C17.5833 11.9066 16.4267 10.75 15 10.75H4.99999ZM15 9.24998C16.4267 9.24998 17.5833 8.09338 17.5833 6.66665C17.5833 5.23991 16.4267 4.08331 15 4.08331H4.99999C3.57325 4.08331 2.41666 5.23991 2.41666 6.66665C2.41666 8.09338 3.57325 9.24998 4.99999 9.24998H15ZM4.24999 6.66665C4.24999 6.25243 4.58578 5.91665 4.99999 5.91665H5.00832C5.42254 5.91665 5.75832 6.25243 5.75832 6.66665C5.75832 7.08086 5.42254 7.41665 5.00832 7.41665H4.99999C4.58578 7.41665 4.24999 7.08086 4.24999 6.66665ZM4.24999 13.3333C4.24999 12.9191 4.58578 12.5833 4.99999 12.5833H5.00832C5.42254 12.5833 5.75832 12.9191 5.75832 13.3333C5.75832 13.7475 5.42254 14.0833 5.00832 14.0833H4.99999C4.58578 14.0833 4.24999 13.7475 4.24999 13.3333Z" fill="currentColor" fill-opacity="0.8"/>
</svg>
