<svg width="20" height="20" viewBox="0 0 20 20" fill="none" xmlns="http://www.w3.org/2000/svg">
<path fill-rule="evenodd" clip-rule="evenodd" d="M1.75 5C1.75 4.58579 2.08579 4.25 2.5 4.25H16.6667C17.0809 4.25 17.4167 4.58579 17.4167 5C17.4167 5.41421 17.0809 5.75 16.6667 5.75H2.5C2.08579 5.75 1.75 5.41421 1.75 5ZM1.75 8.33333C1.75 7.91912 2.08579 7.58333 2.5 7.58333H13.3333C13.7475 7.58333 14.0833 7.91912 14.0833 8.33333C14.0833 8.74755 13.7475 9.08333 13.3333 9.08333H2.5C2.08579 9.08333 1.75 8.74755 1.75 8.33333ZM1.75 11.6667C1.75 11.2525 2.08579 10.9167 2.5 10.9167H16.6667C17.0809 10.9167 17.4167 11.2525 17.4167 11.6667C17.4167 12.0809 17.0809 12.4167 16.6667 12.4167H2.5C2.08579 12.4167 1.75 12.0809 1.75 11.6667ZM1.75 15C1.75 14.5858 2.08579 14.25 2.5 14.25H13.3333C13.7475 14.25 14.0833 14.5858 14.0833 15C14.0833 15.4142 13.7475 15.75 13.3333 15.75H2.5C2.08579 15.75 1.75 15.4142 1.75 15Z" fill="currentColor" fill-opacity="0.8"/>
</svg>
