<svg width="14" height="14" viewBox="0 0 14 14" fill="none" xmlns="http://www.w3.org/2000/svg">
<g clip-path="url(#clip0_481_137)">
<path fill-rule="evenodd" clip-rule="evenodd" d="M7.56668 1.16665C7.56668 0.83528 7.83531 0.56665 8.16668 0.56665H9.33329C9.66467 0.56665 9.93329 0.83528 9.93329 1.16665C9.93329 1.49802 9.66467 1.76665 9.33329 1.76665H8.16668C7.83531 1.76665 7.56668 1.49802 7.56668 1.16665ZM6.72493 1.16015C6.72942 1.49149 6.46446 1.76374 6.13312 1.76823C5.72805 1.77372 5.62666 1.80263 5.57606 1.82841C5.46943 1.88274 5.38274 1.96943 5.32841 2.07606C5.30263 2.12666 5.27372 2.22804 5.26823 2.63311C5.26374 2.96445 4.99149 3.22942 4.66015 3.22493C4.32881 3.22044 4.06385 2.94819 4.06834 2.61685C4.07352 2.23436 4.0902 1.86296 4.25921 1.53127C4.42858 1.19885 4.69885 0.928582 5.03127 0.759205C5.36296 0.5902 5.73437 0.57352 6.11685 0.568336C6.44819 0.563846 6.72044 0.828811 6.72493 1.16015ZM10.775 1.16015C10.7795 0.828811 11.0518 0.563846 11.3831 0.568336C11.7656 0.57352 12.137 0.5902 12.4687 0.759206C12.8011 0.928582 13.0714 1.19885 13.2408 1.53127C13.4098 1.86296 13.4264 2.23436 13.4316 2.61685C13.4361 2.94819 13.1712 3.22043 12.8398 3.22492C12.5085 3.22941 12.2362 2.96445 12.2317 2.63311C12.2263 2.22804 12.1973 2.12666 12.1716 2.07606C12.1172 1.96943 12.0305 1.88274 11.9239 1.82841C11.8733 1.80263 11.7719 1.77372 11.3669 1.76823C11.0355 1.76374 10.7705 1.49149 10.775 1.16015ZM12.8333 4.06665C13.1647 4.06665 13.4333 4.33528 13.4333 4.66665V5.83331C13.4333 6.16468 13.1647 6.43331 12.8333 6.43331C12.5019 6.43331 12.2333 6.16468 12.2333 5.83331V4.66665C12.2333 4.33528 12.5019 4.06665 12.8333 4.06665ZM3.01033 4.06665H7.48964C7.7967 4.06664 8.06258 4.06663 8.28177 4.08454C8.51342 4.10346 8.74524 4.14535 8.9687 4.25921C9.30112 4.42858 9.57139 4.69885 9.74076 5.03127C9.85462 5.25473 9.8965 5.48654 9.91543 5.71819C9.93334 5.93739 9.93333 6.20327 9.93332 6.51033V10.9896C9.93333 11.2967 9.93334 11.5626 9.91543 11.7818C9.8965 12.0134 9.85462 12.2452 9.74076 12.4687C9.57139 12.8011 9.30112 13.0714 8.9687 13.2408C8.74524 13.3546 8.51342 13.3965 8.28177 13.4154C8.06258 13.4333 7.7967 13.4333 7.48963 13.4333H3.01034C2.70327 13.4333 2.43739 13.4333 2.21819 13.4154C1.98655 13.3965 1.75473 13.3546 1.53127 13.2408C1.19885 13.0714 0.928583 12.8011 0.759207 12.4687C0.645347 12.2452 0.603466 12.0134 0.584539 11.7818C0.56663 11.5626 0.56664 11.2967 0.566651 10.9896V6.51032C0.56664 6.20326 0.56663 5.93738 0.584539 5.71819C0.603466 5.48654 0.645347 5.25473 0.759207 5.03127C0.928583 4.69885 1.19885 4.42858 1.53127 4.25921C1.75473 4.14535 1.98655 4.10346 2.21819 4.08454C2.43739 4.06663 2.70326 4.06664 3.01033 4.06665ZM2.31591 5.28055C2.15847 5.29342 2.10216 5.31511 2.07606 5.32841C1.96943 5.38274 1.88274 5.46943 1.82841 5.57606C1.81512 5.60216 1.79342 5.65847 1.78055 5.81591C1.76712 5.98036 1.76665 6.19672 1.76665 6.53332V10.9667C1.76665 11.3032 1.76712 11.5196 1.78055 11.6841C1.79342 11.8415 1.81512 11.8978 1.82841 11.9239C1.88274 12.0305 1.96943 12.1172 2.07606 12.1716C2.10216 12.1849 2.15847 12.2066 2.31591 12.2194C2.48036 12.2329 2.69672 12.2333 3.03332 12.2333H7.46665C7.80325 12.2333 8.01961 12.2329 8.18406 12.2194C8.3415 12.2066 8.39781 12.1849 8.42391 12.1716C8.53054 12.1172 8.61723 12.0305 8.67155 11.9239C8.68485 11.8978 8.70655 11.8415 8.71942 11.6841C8.73285 11.5196 8.73332 11.3032 8.73332 10.9667V6.53332C8.73332 6.19672 8.73285 5.98036 8.71942 5.81591C8.70655 5.65847 8.68485 5.60216 8.67155 5.57606C8.61723 5.46943 8.53054 5.38274 8.42391 5.32841C8.39781 5.31511 8.3415 5.29342 8.18406 5.28055C8.01961 5.26712 7.80325 5.26665 7.46665 5.26665H3.03332C2.69672 5.26665 2.48036 5.26712 2.31591 5.28055ZM12.8398 7.27503C13.1712 7.27952 13.4361 7.55177 13.4316 7.88311C13.4264 8.2656 13.4098 8.63701 13.2408 8.9687C13.0714 9.30112 12.8011 9.57139 12.4687 9.74076C12.137 9.90977 11.7656 9.92645 11.3831 9.93163C11.0518 9.93612 10.7795 9.67116 10.775 9.33982C10.7705 9.00848 11.0355 8.73623 11.3669 8.73174C11.7719 8.72625 11.8733 8.69734 11.9239 8.67155C12.0305 8.61723 12.1172 8.53054 12.1716 8.42391C12.1973 8.37331 12.2263 8.27192 12.2317 7.86685C12.2362 7.53551 12.5085 7.27054 12.8398 7.27503Z" fill="currentColor" fill-opacity="0.4"/>
</g>
<defs>
<clipPath id="clip0_481_137">
<rect width="14" height="14" fill="currentColor"/>
</clipPath>
</defs>
</svg>
