<svg width="20" height="20" viewBox="0 0 20 20" fill="none" xmlns="http://www.w3.org/2000/svg">
<path fill-rule="evenodd" clip-rule="evenodd" d="M5.49996 3.74996C5.49996 2.18515 6.76849 0.916626 8.33329 0.916626C9.8981 0.916626 11.1666 2.18515 11.1666 3.74996V4.24996H11.276C11.8363 4.24995 12.2946 4.24995 12.6689 4.27549C13.0557 4.30188 13.4074 4.35804 13.7437 4.49735C14.54 4.82721 15.1727 5.4599 15.5026 6.25624C15.6419 6.59257 15.698 6.94419 15.7244 7.33102C15.738 7.52949 15.7443 7.75157 15.7473 7.99996H16.25C17.8148 7.99996 19.0833 9.26849 19.0833 10.8333C19.0833 12.3981 17.8148 13.6666 16.25 13.6666H15.75V14.3647C15.75 15.0381 15.75 15.5888 15.7134 16.0364C15.6756 16.4996 15.5948 16.918 15.3957 17.3088C15.0841 17.9203 14.587 18.4175 13.9754 18.7291C13.5847 18.9282 13.1663 19.0089 12.703 19.0467C12.2555 19.0833 11.7048 19.0833 11.0314 19.0833H10.4166C10.0024 19.0833 9.66663 18.7475 9.66663 18.3333V16.875C9.66663 16.2536 9.16295 15.75 8.54163 15.75C7.92031 15.75 7.41663 16.2536 7.41663 16.875V18.3333C7.41663 18.7475 7.08084 19.0833 6.66663 19.0833H5.63519C4.96182 19.0833 4.41112 19.0833 3.96356 19.0467C3.5003 19.0089 3.0819 18.9282 2.69116 18.7291C2.07963 18.4175 1.58244 17.9203 1.27086 17.3088C1.07176 16.918 0.991028 16.4996 0.953178 16.0364C0.91661 15.5888 0.916617 15.0381 0.916626 14.3647L0.916626 12.9166C0.916626 12.5024 1.25241 12.1666 1.66663 12.1666H2.91663C3.65301 12.1666 4.24996 11.5697 4.24996 10.8333C4.24996 10.0969 3.65301 9.49996 2.91663 9.49996H1.66663C1.25241 9.49996 0.916626 9.16417 0.916626 8.74996L0.916626 8.72389C0.91662 8.1636 0.916615 7.70532 0.942154 7.33102C0.968547 6.94419 1.0247 6.59257 1.16402 6.25624C1.49387 5.4599 2.12656 4.82721 2.92291 4.49735C3.25924 4.35804 3.61086 4.30188 3.99768 4.27549C4.37199 4.24995 4.83026 4.24995 5.39055 4.24996H5.49996V3.74996ZM8.33329 2.41663C7.59691 2.41663 6.99996 3.01358 6.99996 3.74996V4.99996C6.99996 5.41417 6.66417 5.74996 6.24996 5.74996H5.41663C4.82394 5.74996 4.41698 5.75037 4.09979 5.77201C3.78934 5.79319 3.62003 5.83218 3.49693 5.88317C3.06813 6.06078 2.72745 6.40146 2.54984 6.83026C2.49885 6.95336 2.45986 7.12267 2.43867 7.43312C2.42766 7.59459 2.42214 7.77931 2.41939 7.99996H2.91663C4.48143 7.99996 5.74996 9.26849 5.74996 10.8333C5.74996 12.3981 4.48143 13.6666 2.91663 13.6666H2.41663V14.3333C2.41663 15.0457 2.41721 15.535 2.4482 15.9142C2.47847 16.2847 2.53397 16.4837 2.60737 16.6278C2.77514 16.9571 3.04286 17.2248 3.37214 17.3926C3.51618 17.4659 3.71521 17.5215 4.08571 17.5517C4.46496 17.5827 4.95419 17.5833 5.66663 17.5833H5.91663V16.875C5.91663 15.4252 7.09188 14.25 8.54163 14.25C9.99137 14.25 11.1666 15.4252 11.1666 16.875V17.5833C11.7899 17.583 12.2319 17.5802 12.5809 17.5517C12.9514 17.5215 13.1504 17.4659 13.2944 17.3926C13.6237 17.2248 13.8914 16.9571 14.0592 16.6278C14.1326 16.4837 14.1881 16.2847 14.2184 15.9142C14.2494 15.535 14.25 15.0457 14.25 14.3333V12.9166C14.25 12.5024 14.5857 12.1666 15 12.1666H16.25C16.9863 12.1666 17.5833 11.5697 17.5833 10.8333C17.5833 10.0969 16.9863 9.49996 16.25 9.49996H15C14.5857 9.49996 14.25 9.16417 14.25 8.74996C14.25 8.15727 14.2496 7.75032 14.2279 7.43312C14.2067 7.12267 14.1677 6.95336 14.1168 6.83026C13.9391 6.40146 13.5985 6.06078 13.1697 5.88317C13.0466 5.83218 12.8773 5.79319 12.5668 5.77201C12.2496 5.75037 11.8426 5.74996 11.25 5.74996H10.4166C10.0024 5.74996 9.66663 5.41417 9.66663 4.99996V3.74996C9.66663 3.01358 9.06967 2.41663 8.33329 2.41663Z" fill="currentColor"/>
</svg>
