<svg width="20" height="20" viewBox="0 0 20 20" fill="none" xmlns="http://www.w3.org/2000/svg">
<g clip-path="url(#clip0_413_234)">
<path fill-rule="evenodd" clip-rule="evenodd" d="M6.07212 6.07196C6.72474 3.12246 9.35423 0.916687 12.5 0.916687C16.1359 0.916687 19.0833 3.86415 19.0833 7.50002C19.0833 10.6458 16.8776 13.2753 13.9281 13.9279C13.2758 16.8773 10.6455 19.0834 7.49999 19.0834C3.86412 19.0834 0.916656 16.1359 0.916656 12.5C0.916656 9.35447 3.12275 6.72418 6.07212 6.07196ZM6.80715 7.46351C6.8148 7.4626 6.82243 7.46158 6.83002 7.46044C7.04925 7.43158 7.27288 7.41669 7.49999 7.41669C10.3074 7.41669 12.5833 9.69257 12.5833 12.5C12.5833 12.7271 12.5684 12.9508 12.5396 13.17C12.5384 13.1776 12.5374 13.1852 12.5365 13.1928C12.1986 15.6725 10.0724 17.5834 7.49999 17.5834C4.69254 17.5834 2.41666 15.3075 2.41666 12.5C2.41666 9.92758 4.32746 7.80144 6.80715 7.46351ZM14.0812 12.3328C13.9939 8.82977 11.1702 6.0061 7.66721 5.91877C8.33193 3.88569 10.2449 2.41669 12.5 2.41669C15.3074 2.41669 17.5833 4.69257 17.5833 7.50002C17.5833 9.75514 16.1143 11.6681 14.0812 12.3328Z" fill="currentColor" fill-opacity="0.8"/>
</g>
<defs>
<clipPath id="clip0_413_234">
<rect width="20" height="20" fill="white"/>
</clipPath>
</defs>
</svg>
