<svg width="16" height="16" viewBox="0 0 16 16" fill="none" xmlns="http://www.w3.org/2000/svg">
<g clip-path="url(#clip0_791_3076)">
<path fill-rule="evenodd" clip-rule="evenodd" d="M13.3439 2.14884C13.1617 2.13395 12.9199 2.13333 12.5333 2.13333H12.1333V7.86666H12.5333C12.9199 7.86666 13.1617 7.86604 13.3439 7.85115C13.5168 7.83703 13.5644 7.81415 13.5755 7.80853C13.6758 7.7574 13.7574 7.67581 13.8085 7.57546C13.8142 7.56442 13.837 7.51678 13.8512 7.34391C13.8661 7.16171 13.8667 6.9199 13.8667 6.53333V3.46666C13.8667 3.08009 13.8661 2.83828 13.8512 2.65608C13.837 2.48321 13.8142 2.43557 13.8085 2.42453C13.7574 2.32418 13.6758 2.24259 13.5755 2.19146C13.5644 2.18584 13.5168 2.16296 13.3439 2.14884ZM10.5333 8.5465V2.13333H5.41202C4.91274 2.13333 4.58284 2.13386 4.32745 2.15331C4.08206 2.17198 3.96524 2.20496 3.88725 2.2403C3.67917 2.33458 3.50233 2.4863 3.37751 2.67761C3.33072 2.74933 3.28036 2.85978 3.22459 3.09947C3.16654 3.34893 3.11585 3.67491 3.03993 4.16839L2.69121 6.43506C2.59135 7.08412 2.52493 7.52047 2.50247 7.85729C2.48052 8.18645 2.50841 8.33602 2.54336 8.42764C2.64261 8.68787 2.82929 8.90547 3.0714 9.04314C3.15665 9.09161 3.30024 9.14192 3.6289 9.17028C3.96522 9.1993 4.4066 9.19999 5.0633 9.19999H5.60001C5.60794 9.19999 5.61588 9.19999 5.62382 9.19999C5.78973 9.19996 5.95863 9.19994 6.10302 9.21173C6.26366 9.22486 6.46299 9.25648 6.66586 9.35985C6.94183 9.50047 7.16621 9.72484 7.30682 10.0008C7.41019 10.2037 7.44181 10.403 7.45494 10.5637C7.46674 10.708 7.46671 10.877 7.46668 11.0429L7.46668 13.0228C7.46668 13.4351 7.76238 13.7783 8.15328 13.852L10.3208 8.9752C10.3277 8.9596 10.3349 8.94319 10.3424 8.92608C10.3901 8.81728 10.4501 8.68043 10.5333 8.5465ZM12.563 0.533326C12.911 0.53331 13.219 0.533295 13.4742 0.55415C13.746 0.576357 14.0277 0.626144 14.3019 0.765847C14.7033 0.970376 15.0296 1.29673 15.2342 1.69815C15.3739 1.97233 15.4236 2.25398 15.4459 2.52578C15.4667 2.78104 15.4667 3.08903 15.4667 3.43705V6.56294C15.4667 6.91095 15.4667 7.21895 15.4459 7.4742C15.4236 7.74601 15.3739 8.02766 15.2342 8.30184C15.0296 8.70325 14.7033 9.02961 14.3019 9.23414C14.0277 9.37384 13.746 9.42363 13.4742 9.44584C13.219 9.46669 12.911 9.46668 12.563 9.46666H12.0265C11.9624 9.46666 11.913 9.46667 11.8703 9.46721C11.8645 9.46729 11.859 9.46737 11.8538 9.46746C11.8516 9.4722 11.8492 9.4772 11.8468 9.48246C11.829 9.52123 11.8089 9.56637 11.7829 9.62502L9.54236 14.6662C9.32601 15.1529 8.84327 15.4667 8.31057 15.4667C6.96085 15.4667 5.86668 14.3725 5.86668 13.0228V11.0667C5.86668 10.9715 5.86666 10.8966 5.86564 10.832C5.86547 10.8213 5.86528 10.8112 5.86506 10.8016C5.85551 10.8014 5.8454 10.8012 5.83469 10.801C5.77003 10.8 5.69518 10.8 5.60001 10.8H5.02843C4.41558 10.8 3.90469 10.8 3.49136 10.7644C3.06256 10.7274 2.65501 10.647 2.28052 10.434C1.71559 10.1128 1.28 9.60504 1.04841 8.99784C0.894878 8.59532 0.877379 8.18029 0.906014 7.75084C0.933616 7.3369 1.01131 6.83196 1.10451 6.22624L1.46297 3.89623C1.53326 3.43932 1.59273 3.05269 1.66622 2.73684C1.74354 2.40459 1.84824 2.0934 2.0375 1.80333C2.32876 1.35692 2.74138 1.00292 3.22689 0.782932C3.54236 0.639983 3.86585 0.583814 4.206 0.557921C4.52935 0.533307 4.92052 0.533316 5.38281 0.533327L12.563 0.533326Z" fill="currentColor" fill-opacity="0.8"/>
</g>
<defs>
<clipPath id="clip0_791_3076">
<rect width="16" height="16" fill="currentColor"/>
</clipPath>
</defs>
</svg>
