<svg width="20" height="20" viewBox="0 0 20 20" fill="none" xmlns="http://www.w3.org/2000/svg">
<path fill-rule="evenodd" clip-rule="evenodd" d="M9.99999 2.41669C5.81183 2.41669 2.41666 5.81186 2.41666 10C2.41666 14.1882 5.81183 17.5834 9.99999 17.5834C14.1882 17.5834 17.5833 14.1882 17.5833 10C17.5833 5.81186 14.1882 2.41669 9.99999 2.41669ZM0.916656 10C0.916656 4.98343 4.9834 0.916687 9.99999 0.916687C15.0166 0.916687 19.0833 4.98343 19.0833 10C19.0833 15.0166 15.0166 19.0834 9.99999 19.0834C4.9834 19.0834 0.916656 15.0166 0.916656 10ZM12.3475 7.65254L8.82625 8.82628L7.65251 12.3475L11.1737 11.1738L12.3475 7.65254ZM12.5718 6.01157C12.7206 5.9766 12.9853 5.92639 13.2664 6.02661C13.5962 6.14423 13.8558 6.40379 13.9734 6.73364C14.0736 7.01467 14.0234 7.27939 13.9884 7.42823C13.9526 7.5809 13.8922 7.76201 13.8318 7.94285L12.5836 11.6876C12.5813 11.6946 12.5787 11.7025 12.5759 11.7112C12.5484 11.7955 12.4964 11.9553 12.4002 12.096C12.3185 12.2154 12.2153 12.3185 12.0959 12.4002C11.9553 12.4964 11.7954 12.5485 11.7111 12.5759C11.7025 12.5787 11.6946 12.5813 11.6876 12.5836L7.94281 13.8319C7.76198 13.8922 7.58087 13.9526 7.4282 13.9885C7.27936 14.0234 7.01464 14.0737 6.73361 13.9734C6.40376 13.8558 6.1442 13.5962 6.02658 13.2664C5.92636 12.9854 5.97657 12.7207 6.01154 12.5718C6.04742 12.4191 6.10782 12.238 6.16813 12.0572C6.17102 12.0486 6.1739 12.0399 6.17678 12.0313L7.4164 8.31241C7.41873 8.30543 7.42129 8.29755 7.42412 8.28887C7.45155 8.20457 7.50356 8.04475 7.5998 7.90407C7.68147 7.78467 7.78464 7.6815 7.90404 7.59983C8.04472 7.50359 8.20455 7.45158 8.28884 7.42415C8.29752 7.42132 8.3054 7.41876 8.31238 7.41643L12.0572 6.16816C12.238 6.10785 12.4191 6.04745 12.5718 6.01157Z" fill="currentColor" fill-opacity="0.8"/>
</svg>
