<svg width="20" height="20" viewBox="0 0 20 20" fill="none" xmlns="http://www.w3.org/2000/svg">
<path fill-rule="evenodd" clip-rule="evenodd" d="M10.0004 2.41663C9.26402 2.41663 8.66707 3.01358 8.66707 3.74996C8.66707 4.48634 9.26402 5.08329 10.0004 5.08329C10.7368 5.08329 11.3337 4.48634 11.3337 3.74996C11.3337 3.01358 10.7368 2.41663 10.0004 2.41663ZM7.2674 2.99996C7.59618 1.79912 8.69523 0.916626 10.0004 0.916626C11.3056 0.916626 12.4046 1.79912 12.7334 2.99996L16.6671 2.99996C17.0813 2.99996 17.4171 3.33575 17.4171 3.74996C17.4171 4.16417 17.0813 4.49996 16.6671 4.49996L12.7334 4.49996C12.47 5.46191 11.7124 6.21959 10.7504 6.48296V16.75L16.6671 16.75C17.0813 16.75 17.4171 17.0857 17.4171 17.5C17.4171 17.9142 17.0813 18.25 16.6671 18.25L3.33374 18.25C2.91952 18.25 2.58374 17.9142 2.58374 17.5C2.58374 17.0857 2.91952 16.75 3.33374 16.75L9.2504 16.75V6.48296C8.28845 6.21959 7.53078 5.46192 7.2674 4.49996L3.33374 4.49997C2.91952 4.49997 2.58374 4.16418 2.58374 3.74997C2.58374 3.33575 2.91952 2.99997 3.33374 2.99997L7.2674 2.99996ZM4.58374 5.91663C4.83794 5.91663 5.07484 6.04539 5.2131 6.2587L7.70084 10.0969C7.7057 10.1044 7.71053 10.1119 7.71534 10.1193C7.85133 10.3289 7.9687 10.5099 8.06583 10.7973C8.10703 10.9192 8.13691 11.0737 8.15526 11.1876C8.17362 11.3015 8.19381 11.4576 8.19299 11.5862C8.19226 11.7029 8.18815 11.8045 8.175 11.9028C8.16183 12.0012 8.14156 12.0787 8.12836 12.1291L8.12643 12.1364C7.71178 13.7241 6.29462 14.9166 4.58374 14.9166C2.87286 14.9166 1.4557 13.7241 1.04105 12.1364L1.03912 12.1291C1.02592 12.0787 1.00565 12.0012 0.992473 11.9028C0.979326 11.8045 0.975216 11.7029 0.97448 11.5862C0.973669 11.4576 0.993852 11.3015 1.01221 11.1876C1.03057 11.0737 1.06044 10.9192 1.10165 10.7973C1.19878 10.5099 1.31615 10.3289 1.45214 10.1193C1.45694 10.1119 1.46178 10.1044 1.46663 10.0969L3.95437 6.2587C4.09263 6.04539 4.32953 5.91663 4.58374 5.91663ZM2.4745 11.5833C2.47519 11.6702 2.47842 11.6978 2.47922 11.7038C2.47922 11.7038 2.47923 11.7039 2.47922 11.7038C2.47925 11.7047 2.47935 11.7076 2.49237 11.7574C2.74554 12.7268 3.59778 13.4166 4.58374 13.4166C5.5697 13.4166 6.42194 12.7268 6.67511 11.7574C6.68812 11.7076 6.68821 11.7049 6.68824 11.7041C6.68822 11.7042 6.68824 11.704 6.68824 11.7041C6.68904 11.6981 6.69228 11.6702 6.69298 11.5833H2.4745ZM5.90448 10.0833H3.26299L4.58374 8.04557L5.90448 10.0833ZM15.4171 5.91663C15.6713 5.91663 15.9082 6.04539 16.0464 6.2587L18.5342 10.0969C18.539 10.1044 18.5439 10.1119 18.5487 10.1193C18.6847 10.3289 18.802 10.5099 18.8992 10.7973C18.9404 10.9192 18.9702 11.0737 18.9886 11.1876C19.007 11.3015 19.0271 11.4576 19.0263 11.5862C19.0256 11.7029 19.0215 11.8045 19.0083 11.9028C18.9952 12.0012 18.9749 12.0787 18.9617 12.1291L18.9598 12.1364C18.5451 13.7241 17.128 14.9166 15.4171 14.9166C13.7062 14.9166 12.289 13.7241 11.8744 12.1364C11.8738 12.1341 11.8731 12.1316 11.8724 12.1291C11.8592 12.0786 11.839 12.0012 11.8258 11.9028C11.8127 11.8045 11.8085 11.7029 11.8078 11.5862C11.807 11.4576 11.8272 11.3015 11.8455 11.1876C11.8639 11.0737 11.8938 10.9192 11.935 10.7973C12.0321 10.5099 12.1495 10.3289 12.2855 10.1193C12.2903 10.1119 12.2951 10.1044 12.3 10.0969L14.7877 6.2587C14.926 6.04539 15.1629 5.91663 15.4171 5.91663ZM14.0963 10.0833H16.7378L15.4171 8.04557L14.0963 10.0833ZM17.5263 11.5833H13.3078C13.3085 11.6702 13.3118 11.6978 13.3126 11.7038C13.3126 11.7038 13.3126 11.7039 13.3126 11.7038C13.3126 11.7047 13.3127 11.7076 13.3257 11.7574C13.5789 12.7268 14.4311 13.4166 15.4171 13.4166C16.403 13.4166 17.2553 12.7268 17.5084 11.7574C17.5215 11.7076 17.5215 11.705 17.5216 11.7041C17.5216 11.7042 17.5216 11.704 17.5216 11.7041C17.5224 11.6981 17.5256 11.6702 17.5263 11.5833Z" fill="currentColor" fill-opacity="0.8"/>
</svg>
