<svg width="20" height="20" viewBox="0 0 20 20" fill="none" xmlns="http://www.w3.org/2000/svg">
<path fill-rule="evenodd" clip-rule="evenodd" d="M9.98845 2.63984C9.98098 2.64402 9.96778 2.65185 9.94763 2.66531C9.88192 2.70921 9.79669 2.77493 9.64187 2.89535L3.98995 7.29129C3.57861 7.61121 3.49016 7.68826 3.42968 7.77003C3.36338 7.85968 3.31399 7.96067 3.28393 8.06804C3.25652 8.16598 3.25 8.2831 3.25 8.80421V14.8333C3.25 15.3124 3.25058 15.6266 3.27022 15.8669C3.28914 16.0984 3.32193 16.1946 3.34991 16.2495C3.4378 16.422 3.57803 16.5622 3.75051 16.6501C3.80542 16.6781 3.90154 16.7109 4.13308 16.7298C4.37337 16.7494 4.68758 16.75 5.16667 16.75H14.8333C15.3124 16.75 15.6266 16.7494 15.8669 16.7298C16.0985 16.7109 16.1946 16.6781 16.2495 16.6501C16.422 16.5622 16.5622 16.422 16.6501 16.2495C16.6781 16.1946 16.7109 16.0984 16.7298 15.8669C16.7494 15.6266 16.75 15.3124 16.75 14.8333V8.80421C16.75 8.28311 16.7435 8.16598 16.7161 8.06804C16.686 7.96067 16.6366 7.85968 16.5703 7.77003C16.5098 7.68826 16.4214 7.61121 16.0101 7.29129L10.3581 2.89535C10.2033 2.77493 10.1181 2.70921 10.0524 2.66531C10.0322 2.65185 10.019 2.64402 10.0116 2.63984C10.0039 2.63877 9.99611 2.63877 9.98845 2.63984ZM9.5862 1.19407C9.85719 1.1207 10.1428 1.1207 10.4138 1.19407C10.7275 1.27901 10.9925 1.48681 11.2177 1.66338C11.2385 1.67966 11.2589 1.69568 11.279 1.71132L16.931 6.10726C16.9518 6.12343 16.9723 6.13941 16.9927 6.15523C17.3099 6.40146 17.5774 6.60911 17.7763 6.87806C17.9511 7.1144 18.0813 7.38064 18.1606 7.66371C18.2507 7.98586 18.2504 8.32448 18.25 8.72604C18.25 8.75183 18.25 8.77788 18.25 8.80421V14.8628C18.25 15.3044 18.25 15.6804 18.2248 15.9891C18.1983 16.3134 18.1403 16.6289 17.9866 16.9305C17.7549 17.3852 17.3852 17.7549 16.9305 17.9866C16.6289 18.1403 16.3134 18.1983 15.9891 18.2248C15.6804 18.25 15.3044 18.25 14.8629 18.25H5.13715C4.6956 18.25 4.31962 18.25 4.01093 18.2248C3.68663 18.1983 3.37113 18.1403 3.06952 17.9866C2.6148 17.7549 2.2451 17.3852 2.0134 16.9305C1.85972 16.6289 1.8017 16.3134 1.7752 15.9891C1.74998 15.6804 1.74999 15.3044 1.75 14.8628L1.75 8.80421C1.75 8.77788 1.74998 8.75182 1.74995 8.72602C1.74959 8.32448 1.74928 7.98586 1.83945 7.66371C1.91869 7.38064 2.0489 7.1144 2.2237 6.87806C2.42262 6.60911 2.6901 6.40146 3.00729 6.15522C3.02767 6.1394 3.04825 6.12342 3.06904 6.10726L8.72096 1.71132C8.74106 1.69568 8.76149 1.67966 8.78226 1.66338C9.00746 1.48681 9.27249 1.27901 9.5862 1.19407ZM5.91667 14.1667C5.91667 13.7524 6.25245 13.4167 6.66667 13.4167H13.3333C13.7475 13.4167 14.0833 13.7524 14.0833 14.1667C14.0833 14.5809 13.7475 14.9167 13.3333 14.9167H6.66667C6.25245 14.9167 5.91667 14.5809 5.91667 14.1667Z" fill="currentColor"/>
</svg>
