<svg width="16" height="16" viewBox="0 0 16 16" fill="none" xmlns="http://www.w3.org/2000/svg">
<path fill-rule="evenodd" clip-rule="evenodd" d="M5.25925 2.79995C3.47825 2.79995 2.13333 4.54006 2.13333 6.31995C2.13333 7.16597 2.46198 8.01976 3.0227 8.85566C3.58278 9.69061 4.34578 10.4642 5.13777 11.1317C5.92676 11.7966 6.72289 12.3383 7.32923 12.7134C7.5992 12.8804 7.82878 13.0128 7.99999 13.1067C8.1712 13.0128 8.40079 12.8804 8.67075 12.7134C9.2771 12.3383 10.0732 11.7966 10.8622 11.1317C11.6542 10.4642 12.4172 9.69061 12.9773 8.85566C13.538 8.01976 13.8667 7.16597 13.8667 6.31995C13.8667 4.54006 12.5217 2.79995 10.7407 2.79995C9.69736 2.79995 9.02059 3.31804 8.60899 3.80122C8.45699 3.97966 8.23439 4.08245 7.99999 4.08245C7.7656 4.08245 7.54299 3.97966 7.391 3.80122C6.9794 3.31804 6.30263 2.79995 5.25925 2.79995ZM0.533325 6.31995C0.533325 3.92984 2.34396 1.19995 5.25925 1.19995C6.46048 1.19995 7.3624 1.64724 7.99999 2.16682C8.63759 1.64724 9.53951 1.19995 10.7407 1.19995C13.656 1.19995 15.4667 3.92984 15.4667 6.31995C15.4667 7.58518 14.9768 8.74701 14.306 9.74697C13.6346 10.7479 12.7532 11.6304 11.8933 12.3551C11.0305 13.0823 10.1673 13.669 9.51257 14.0741C9.18465 14.2769 8.90552 14.4364 8.70053 14.5471C8.59867 14.6021 8.5112 14.6471 8.44282 14.6802C8.4097 14.6963 8.37385 14.713 8.33962 14.7274C8.3235 14.7341 8.29766 14.7447 8.26742 14.755C8.25259 14.76 8.22721 14.7682 8.19566 14.776L8.19507 14.7762C8.17504 14.7811 8.09872 14.8 7.99999 14.8C7.90126 14.8 7.82494 14.7811 7.80492 14.7762L7.80432 14.776C7.77277 14.7682 7.7474 14.76 7.73256 14.755C7.70232 14.7447 7.67648 14.7341 7.66037 14.7274C7.62613 14.713 7.59029 14.6963 7.55717 14.6802C7.48878 14.6471 7.40131 14.6021 7.29946 14.5471C7.09447 14.4364 6.81534 14.2769 6.48742 14.0741C5.83265 13.669 4.96952 13.0823 4.10666 12.3551C3.2468 11.6304 2.36536 10.7479 1.69395 9.74697C1.02319 8.74701 0.533325 7.58518 0.533325 6.31995Z" fill="currentColor" fill-opacity="0.8"/>
</svg>
