<svg width="16" height="16" viewBox="0 0 16 16" fill="none" xmlns="http://www.w3.org/2000/svg">
<g clip-path="url(#clip0_778_3033)">
<path d="M4.66668 14.6666V7.33331M1.33334 8.66665V13.3333C1.33334 14.0697 1.9303 14.6666 2.66668 14.6666H11.6175C12.6046 14.6666 13.4441 13.9464 13.5942 12.9708L14.3122 8.30409C14.4986 7.09258 13.5612 5.99998 12.3355 5.99998H10C9.63182 5.99998 9.33334 5.7015 9.33334 5.33331V2.97721C9.33334 2.06931 8.59735 1.33331 7.68945 1.33331C7.4729 1.33331 7.27666 1.46084 7.18871 1.65873L4.84264 6.93741C4.73564 7.17816 4.49689 7.33331 4.23343 7.33331H2.66668C1.9303 7.33331 1.33334 7.93027 1.33334 8.66665Z" stroke="#1A1A1A" stroke-opacity="0.8" stroke-width="1.6" stroke-linecap="round" stroke-linejoin="round"/>
</g>
<defs>
<clipPath id="clip0_778_3033">
<rect width="16" height="16" fill="currentColor"/>
</clipPath>
</defs>
</svg>
