<svg width="16" height="16" viewBox="0 0 16 16" fill="none" xmlns="http://www.w3.org/2000/svg">
<g clip-path="url(#clip0_791_3074)">
<path fill-rule="evenodd" clip-rule="evenodd" d="M6.45765 1.33383C6.674 0.847043 7.15673 0.533325 7.68943 0.533325C9.03916 0.533325 10.1333 1.62749 10.1333 2.97722V5.19999H12.3354C14.0515 5.19999 15.3638 6.72963 15.1029 8.42575L14.3849 13.0924C14.1748 14.4583 12.9995 15.4667 11.6175 15.4667H2.66666C1.48845 15.4667 0.533325 14.5115 0.533325 13.3333V8.66666C0.533325 7.48845 1.48845 6.53333 2.66666 6.53333H4.14676L6.45765 1.33383ZM5.46666 13.8667H11.6175C12.2098 13.8667 12.7135 13.4345 12.8035 12.8491L13.5215 8.18246C13.6333 7.45555 13.0709 6.79999 12.3354 6.79999H9.99999C9.18997 6.79999 8.53333 6.14334 8.53333 5.33333V2.97722C8.53333 2.5649 8.23762 2.22165 7.84672 2.14796L5.57367 7.26233C5.5428 7.33177 5.50696 7.39798 5.46666 7.4606V13.8667ZM3.86666 8.13333V13.8667H2.66666C2.37211 13.8667 2.13333 13.6279 2.13333 13.3333V8.66666C2.13333 8.37211 2.37211 8.13333 2.66666 8.13333H3.86666Z" fill="currentColor" fill-opacity="0.8"/>
</g>
<defs>
<clipPath id="clip0_791_3074">
<rect width="16" height="16" fill="currentColor"/>
</clipPath>
</defs>
</svg>
