<svg width="14" height="14" viewBox="0 0 14 14" fill="none" xmlns="http://www.w3.org/2000/svg">
<path fill-rule="evenodd" clip-rule="evenodd" d="M4.52534 1.15002L5.25003 1.15002C5.5814 1.15002 5.85003 1.41865 5.85003 1.75002C5.85003 2.0814 5.5814 2.35002 5.25003 2.35002H4.55003C4.05008 2.35002 3.7112 2.35049 3.44949 2.37187C3.19478 2.39269 3.06643 2.43028 2.97794 2.47537C2.76155 2.58562 2.58562 2.76155 2.47537 2.97794C2.43028 3.06643 2.39269 3.19478 2.37187 3.44949C2.35049 3.7112 2.35002 4.05008 2.35002 4.55002V9.45003C2.35002 9.94997 2.35049 10.2888 2.37187 10.5506C2.39269 10.8053 2.43028 10.9336 2.47537 11.0221C2.58562 11.2385 2.76155 11.4144 2.97794 11.5247C3.06643 11.5698 3.19478 11.6074 3.44949 11.6282C3.7112 11.6496 4.05008 11.65 4.55003 11.65H5.25003C5.5814 11.65 5.85003 11.9187 5.85003 12.25C5.85003 12.5814 5.5814 12.85 5.25003 12.85H4.52531C4.05627 12.85 3.66815 12.85 3.35177 12.8242C3.02285 12.7973 2.719 12.7395 2.43315 12.5939C1.99097 12.3686 1.63146 12.0091 1.40616 11.5669C1.26051 11.281 1.20273 10.9772 1.17586 10.6483C1.15001 10.3319 1.15002 9.94377 1.15002 9.47471V4.52534C1.15002 4.05628 1.15001 3.66815 1.17586 3.35177C1.20273 3.02285 1.26051 2.719 1.40616 2.43315C1.63146 1.99097 1.99097 1.63146 2.43315 1.40616C2.719 1.26051 3.02285 1.20273 3.35177 1.17586C3.66815 1.15001 4.05628 1.15002 4.52534 1.15002ZM8.90909 3.65909C9.14341 3.42478 9.52331 3.42478 9.75762 3.65909L12.6743 6.57576C12.9086 6.81008 12.9086 7.18997 12.6743 7.42429L9.75762 10.341C9.52331 10.5753 9.14341 10.5753 8.90909 10.341C8.67478 10.1066 8.67478 9.72674 8.90909 9.49243L10.8015 7.60002H5.25003C4.91865 7.60002 4.65003 7.3314 4.65003 7.00002C4.65003 6.66865 4.91865 6.40002 5.25003 6.40002H10.8015L8.90909 4.50762C8.67478 4.27331 8.67478 3.89341 8.90909 3.65909Z" fill="white"/>
</svg>
