<svg width="14" height="14" viewBox="0 0 14 14" fill="none" xmlns="http://www.w3.org/2000/svg">
<g clip-path="url(#clip0_481_141)">
<path fill-rule="evenodd" clip-rule="evenodd" d="M5.24998 0.56665C5.58135 0.56665 5.84998 0.83528 5.84998 1.16665V2.33332C5.84998 2.66469 5.58135 2.93332 5.24998 2.93332C4.91861 2.93332 4.64998 2.66469 4.64998 2.33332V1.16665C4.64998 0.83528 4.91861 0.56665 5.24998 0.56665ZM7.81316 2.03845C8.95869 0.892913 10.816 0.892913 11.9615 2.03845L11.5476 2.45237L11.9615 2.03845C13.1071 3.18399 13.1071 5.04127 11.9615 6.18681L10.7241 7.42425C10.4898 7.65856 10.1099 7.65856 9.87555 7.42425C9.64124 7.18993 9.64124 6.81003 9.87555 6.57572L11.113 5.33828C11.7899 4.66137 11.7899 3.56389 11.113 2.88698C10.4361 2.21007 9.33859 2.21007 8.66168 2.88698L7.42425 4.12442C7.18993 4.35873 6.81003 4.35873 6.57572 4.12442C6.3414 3.8901 6.3414 3.5102 6.57572 3.27589L7.81316 2.03845ZM1.61739 1.61739C1.8517 1.38307 2.2316 1.38307 2.46591 1.61739L3.29087 2.44234C3.52519 2.67666 3.52519 3.05656 3.29087 3.29087C3.05656 3.52519 2.67666 3.52519 2.44234 3.29087L1.61739 2.46591C1.38307 2.2316 1.38307 1.8517 1.61739 1.61739ZM0.56665 5.24998C0.56665 4.91861 0.83528 4.64998 1.16665 4.64998H2.33332C2.66469 4.64998 2.93332 4.91861 2.93332 5.24998C2.93332 5.58135 2.66469 5.84998 2.33332 5.84998H1.16665C0.83528 5.84998 0.56665 5.58135 0.56665 5.24998ZM4.12442 6.57572C4.35873 6.81003 4.35873 7.18993 4.12442 7.42425L2.88698 8.66168C2.21007 9.33859 2.21007 10.4361 2.88698 11.113C3.56389 11.7899 4.66137 11.7899 5.33828 11.113L6.57572 9.87555C6.81003 9.64124 7.18993 9.64124 7.42425 9.87555C7.65856 10.1099 7.65856 10.4898 7.42425 10.7241L6.18681 11.9615C5.04127 13.1071 3.18399 13.1071 2.03845 11.9615C0.892913 10.816 0.892913 8.95869 2.03845 7.81316L3.27589 6.57572C3.5102 6.3414 3.8901 6.3414 4.12442 6.57572ZM11.0667 8.74998C11.0667 8.41861 11.3353 8.14998 11.6667 8.14998H12.8333C13.1647 8.14998 13.4333 8.41861 13.4333 8.74998C13.4333 9.08135 13.1647 9.34998 12.8333 9.34998H11.6667C11.3353 9.34998 11.0667 9.08135 11.0667 8.74998ZM10.7091 10.7091C10.9434 10.4748 11.3233 10.4748 11.5576 10.7091L12.3826 11.5341C12.6169 11.7684 12.6169 12.1483 12.3826 12.3826C12.1483 12.6169 11.7684 12.6169 11.5341 12.3826L10.7091 11.5576C10.4748 11.3233 10.4748 10.9434 10.7091 10.7091ZM8.74998 11.0667C9.08135 11.0667 9.34998 11.3353 9.34998 11.6667V12.8333C9.34998 13.1647 9.08135 13.4333 8.74998 13.4333C8.41861 13.4333 8.14998 13.1647 8.14998 12.8333V11.6667C8.14998 11.3353 8.41861 11.0667 8.74998 11.0667Z" fill="currentColor" fill-opacity="0.4"/>
</g>
<defs>
<clipPath id="clip0_481_141">
<rect width="14" height="14" fill="currentColor"/>
</clipPath>
</defs>
</svg>
