<svg width="16" height="16" viewBox="0 0 16 16" fill="none" xmlns="http://www.w3.org/2000/svg">
<path fill-rule="evenodd" clip-rule="evenodd" d="M5.16783 1.20001H10.8321C11.3648 1.2 11.8124 1.19999 12.1787 1.22992C12.5617 1.26121 12.9256 1.32916 13.2711 1.50519C13.798 1.77364 14.2263 2.20199 14.4948 2.72884C14.6708 3.07433 14.7388 3.43829 14.77 3.82127C14.8 4.18756 14.8 4.63517 14.8 5.16786V10.8322C14.8 11.3649 14.8 11.8125 14.77 12.1788C14.7388 12.5617 14.6708 12.9257 14.4948 13.2712C14.2263 13.798 13.798 14.2264 13.2711 14.4948C12.9256 14.6709 12.5617 14.7388 12.1787 14.7701C11.8124 14.8 11.3648 14.8 10.8321 14.8H5.1678C4.63511 14.8 4.1875 14.8 3.82121 14.7701C3.43823 14.7388 3.07426 14.6709 2.72878 14.4948C2.20192 14.2264 1.77358 13.798 1.50513 13.2712C1.3291 12.9257 1.26115 12.5617 1.22986 12.1788C1.19993 11.8125 1.19994 11.3648 1.19995 10.8321V5.16789C1.19994 4.63519 1.19993 4.18757 1.22986 3.82127C1.26115 3.43829 1.3291 3.07433 1.50513 2.72884C1.77358 2.20199 2.20192 1.77364 2.72878 1.50519C3.07426 1.32916 3.43823 1.26121 3.82121 1.22992C4.18751 1.19999 4.63513 1.2 5.16783 1.20001ZM3.9515 2.8246C3.66747 2.84781 3.5375 2.88885 3.45516 2.93081C3.22937 3.04585 3.04579 3.22943 2.93074 3.45522C2.88879 3.53756 2.84775 3.66753 2.82454 3.95156C2.80057 4.24493 2.79995 4.62676 2.79995 5.20001V10.8C2.79995 11.3733 2.80057 11.7551 2.82454 12.0485C2.84775 12.3325 2.88879 12.4625 2.93074 12.5448C3.04579 12.7706 3.22937 12.9542 3.45516 13.0692C3.5375 13.1112 3.66747 13.1522 3.9515 13.1754C4.24487 13.1994 4.6267 13.2 5.19995 13.2H10.8C11.3732 13.2 11.755 13.1994 12.0484 13.1754C12.3324 13.1522 12.4624 13.1112 12.5447 13.0692C12.7705 12.9542 12.9541 12.7706 13.0692 12.5448C13.1111 12.4625 13.1522 12.3325 13.1754 12.0485C13.1993 11.7551 13.2 11.3733 13.2 10.8V5.20001C13.2 4.62676 13.1993 4.24493 13.1754 3.95156C13.1522 3.66753 13.1111 3.53756 13.0692 3.45522C12.9541 3.22943 12.7705 3.04585 12.5447 2.93081C12.4624 2.88885 12.3324 2.84781 12.0484 2.8246C11.755 2.80064 11.3732 2.80001 10.8 2.80001H5.19995C4.6267 2.80001 4.24487 2.80064 3.9515 2.8246ZM4.53329 8.00001C4.53329 7.55819 4.89146 7.20001 5.33329 7.20001H10.6666C11.1084 7.20001 11.4666 7.55819 11.4666 8.00001C11.4666 8.44184 11.1084 8.80001 10.6666 8.80001H5.33329C4.89146 8.80001 4.53329 8.44184 4.53329 8.00001Z" fill="currentColor" fill-opacity="0.8"/>
</svg>
