<svg width="20" height="20" viewBox="0 0 20 20" fill="none" xmlns="http://www.w3.org/2000/svg">
<path fill-rule="evenodd" clip-rule="evenodd" d="M7.30193 0.916687H12.6981C13.3715 0.916679 13.9222 0.916671 14.3697 0.953239C14.833 0.991089 15.2514 1.07182 15.6421 1.27092C16.2537 1.5825 16.7509 2.07969 17.0624 2.69122C17.2615 3.08196 17.3423 3.50036 17.3801 3.96362C17.4167 4.41118 17.4167 4.96188 17.4167 5.63525V10.4167C17.4167 10.8309 17.0809 11.1667 16.6667 11.1667C16.2525 11.1667 15.9167 10.8309 15.9167 10.4167V5.66669C15.9167 4.95425 15.9161 4.46502 15.8851 4.08577C15.8548 3.71527 15.7993 3.51624 15.7259 3.3722C15.5582 3.04292 15.2904 2.7752 14.9612 2.60743C14.8171 2.53403 14.6181 2.47853 14.2476 2.44826C13.8683 2.41727 13.3791 2.41669 12.6667 2.41669H7.33334C6.6209 2.41669 6.13168 2.41727 5.75242 2.44826C5.38192 2.47853 5.1829 2.53403 5.03886 2.60743C4.70958 2.7752 4.44186 3.04292 4.27408 3.3722C4.20069 3.51624 4.14518 3.71527 4.11491 4.08577C4.08393 4.46502 4.08334 4.95425 4.08334 5.66669V14.3334C4.08334 15.0458 4.08393 15.535 4.11491 15.9143C4.14518 16.2848 4.20069 16.4838 4.27408 16.6278C4.44186 16.9571 4.70958 17.2248 5.03886 17.3926C5.1829 17.466 5.38192 17.5215 5.75242 17.5518C6.13168 17.5828 6.6209 17.5834 7.33334 17.5834H10C10.4142 17.5834 10.75 17.9191 10.75 18.3334C10.75 18.7476 10.4142 19.0834 10 19.0834H7.30191C6.62854 19.0834 6.07784 19.0834 5.63028 19.0468C5.16701 19.009 4.74862 18.9282 4.35787 18.7291C3.74635 18.4175 3.24916 17.9204 2.93757 17.3088C2.73848 16.9181 2.65775 16.4997 2.6199 16.0364C2.58333 15.5889 2.58334 15.0382 2.58334 14.3648V5.63527C2.58334 4.96189 2.58333 4.41118 2.6199 3.96362C2.65775 3.50036 2.73848 3.08196 2.93757 2.69122C3.24916 2.07969 3.74635 1.5825 4.35787 1.27092C4.74862 1.07182 5.16701 0.991089 5.63028 0.953239C6.07784 0.916671 6.62855 0.916679 7.30193 0.916687ZM5.91668 5.83335C5.91668 5.41914 6.25246 5.08335 6.66668 5.08335H13.3333C13.7476 5.08335 14.0833 5.41914 14.0833 5.83335C14.0833 6.24757 13.7476 6.58335 13.3333 6.58335H6.66668C6.25246 6.58335 5.91668 6.24757 5.91668 5.83335ZM5.91668 9.16669C5.91668 8.75247 6.25246 8.41669 6.66668 8.41669H11.6667C12.0809 8.41669 12.4167 8.75247 12.4167 9.16669C12.4167 9.5809 12.0809 9.91669 11.6667 9.91669H6.66668C6.25246 9.91669 5.91668 9.5809 5.91668 9.16669ZM5.91668 12.5C5.91668 12.0858 6.25246 11.75 6.66668 11.75H8.33334C8.74756 11.75 9.08334 12.0858 9.08334 12.5C9.08334 12.9142 8.74756 13.25 8.33334 13.25H6.66668C6.25246 13.25 5.91668 12.9142 5.91668 12.5ZM18.0303 13.2197C18.3232 13.5126 18.3232 13.9875 18.0303 14.2804L14.2803 18.0304C13.9874 18.3232 13.5126 18.3232 13.2197 18.0304L11.553 16.3637C11.2601 16.0708 11.2601 15.5959 11.553 15.303C11.8459 15.0101 12.3208 15.0101 12.6137 15.303L13.75 16.4394L16.9697 13.2197C17.2626 12.9268 17.7374 12.9268 18.0303 13.2197Z" fill="currentColor" fill-opacity="0.8"/>
</svg>
