<svg width="20" height="20" viewBox="0 0 20 20" fill="none" xmlns="http://www.w3.org/2000/svg">
<path fill-rule="evenodd" clip-rule="evenodd" d="M6.66667 0.916626C7.08088 0.916626 7.41667 1.25241 7.41667 1.66663V2.58329H12.5833V1.66663C12.5833 1.25241 12.9191 0.916626 13.3333 0.916626C13.7475 0.916626 14.0833 1.25241 14.0833 1.66663V2.58416C14.5135 2.58632 14.8844 2.59381 15.2031 2.61984C15.6663 2.65769 16.0847 2.73843 16.4755 2.93752C17.087 3.24911 17.5842 3.7463 17.8958 4.35782C18.0949 4.74856 18.1756 5.16696 18.2134 5.63022C18.25 6.0778 18.25 6.62851 18.25 7.30191V10.4166C18.25 10.8308 17.9142 11.1666 17.5 11.1666C17.0858 11.1666 16.75 10.8308 16.75 10.4166V9.08329H3.25V14.3333C3.25 15.0457 3.25058 15.535 3.28157 15.9142C3.31184 16.2847 3.36735 16.4837 3.44074 16.6278C3.60852 16.9571 3.87623 17.2248 4.20552 17.3926C4.34956 17.4659 4.54858 17.5215 4.91908 17.5517C5.29833 17.5827 5.78756 17.5833 6.5 17.5833H10C10.4142 17.5833 10.75 17.9191 10.75 18.3333C10.75 18.7475 10.4142 19.0833 10 19.0833H6.46856C5.79519 19.0833 5.24449 19.0833 4.79693 19.0467C4.33367 19.0089 3.91527 18.9282 3.52453 18.7291C2.913 18.4175 2.41582 17.9203 2.10423 17.3088C1.90514 16.918 1.8244 16.4996 1.78655 16.0364C1.74998 15.5888 1.74999 15.0381 1.75 14.3647V7.30187C1.74999 6.6285 1.74998 6.07779 1.78655 5.63022C1.8244 5.16696 1.90514 4.74856 2.10423 4.35782C2.41582 3.7463 2.913 3.24911 3.52453 2.93752C3.91527 2.73843 4.33367 2.65769 4.79693 2.61984C5.11555 2.59381 5.48645 2.58632 5.91667 2.58416V1.66663C5.91667 1.25241 6.25245 0.916626 6.66667 0.916626ZM5.91667 4.08425C5.50426 4.08637 5.1847 4.09316 4.91908 4.11486C4.54858 4.14513 4.34956 4.20064 4.20552 4.27403C3.87623 4.44181 3.60852 4.70953 3.44074 5.03881C3.36735 5.18285 3.31184 5.38187 3.28157 5.75237C3.25058 6.13163 3.25 6.62085 3.25 7.33329V7.58329H16.75V7.33329C16.75 6.62085 16.7494 6.13163 16.7184 5.75237C16.6882 5.38187 16.6327 5.18285 16.5593 5.03881C16.3915 4.70953 16.1238 4.44181 15.7945 4.27403C15.6504 4.20064 15.4514 4.14513 15.0809 4.11486C14.8153 4.09316 14.4957 4.08637 14.0833 4.08425V4.99996C14.0833 5.41417 13.7475 5.74996 13.3333 5.74996C12.9191 5.74996 12.5833 5.41417 12.5833 4.99996V4.08329H7.41667V4.99996C7.41667 5.41417 7.08088 5.74996 6.66667 5.74996C6.25245 5.74996 5.91667 5.41417 5.91667 4.99996V4.08425ZM18.0303 13.2196C18.3232 13.5125 18.3232 13.9874 18.0303 14.2803L14.2803 18.0303C14.1397 18.1709 13.9489 18.25 13.75 18.25C13.5511 18.25 13.3603 18.1709 13.2197 18.0303L11.553 16.3636C11.2601 16.0707 11.2601 15.5959 11.553 15.303C11.8459 15.0101 12.3208 15.0101 12.6137 15.303L13.75 16.4393L16.9697 13.2196C17.2626 12.9267 17.7374 12.9267 18.0303 13.2196Z" fill="currentColor" fill-opacity="0.8"/>
</svg>
