<svg width="20" height="20" viewBox="0 0 20 20" fill="none" xmlns="http://www.w3.org/2000/svg">
<g clip-path="url(#clip0_414_219)">
<path d="M7.175 18.3333C6.76835 18.3309 6.37351 18.1964 6.05 17.95L4.325 16.6666C3.92692 16.3563 3.66279 15.9052 3.58686 15.4062C3.51092 14.9072 3.62893 14.398 3.91667 13.9833C4.06891 13.7585 4.16566 13.5008 4.19898 13.2314C4.23229 12.9619 4.20123 12.6884 4.10833 12.4333L4.05833 12.3C3.99365 12.069 3.87542 11.8566 3.71326 11.68C3.55109 11.5034 3.34955 11.3674 3.125 11.2833H2.99167C2.50489 11.1196 2.10234 10.7705 1.87142 10.3118C1.64051 9.85308 1.59987 9.32179 1.75833 8.83329L2.44167 6.66663C2.50457 6.41559 2.62038 6.1809 2.78134 5.97826C2.94231 5.77561 3.14471 5.6097 3.375 5.49163C3.58946 5.38113 3.82411 5.31529 4.06475 5.2981C4.30539 5.28091 4.54701 5.31273 4.775 5.39163C5.02324 5.47517 5.28812 5.49682 5.54663 5.45471C5.80514 5.41259 6.04945 5.30798 6.25833 5.14996L6.36667 5.06663C6.55574 4.91575 6.70856 4.72438 6.81384 4.5066C6.91913 4.28882 6.9742 4.05019 6.975 3.80829V3.60829C6.97276 3.0984 7.17204 2.60827 7.52946 2.24461C7.88687 1.88095 8.37348 1.67321 8.88333 1.66663H11.0083C11.2564 1.66729 11.5019 1.71696 11.7307 1.81278C11.9595 1.90859 12.1671 2.04867 12.3417 2.22496C12.7086 2.59812 12.9124 3.10165 12.9083 3.62496V3.85829C12.9041 4.08809 12.9539 4.31566 13.0538 4.52265C13.1537 4.72965 13.3008 4.91027 13.4833 5.04996L13.575 5.11663C13.762 5.25688 13.9802 5.34983 14.2109 5.38755C14.4416 5.42528 14.678 5.40666 14.9 5.33329L15.1833 5.24163C15.4234 5.16205 15.677 5.13164 15.9291 5.15221C16.1811 5.17277 16.4265 5.24389 16.6504 5.36133C16.8744 5.47876 17.0725 5.6401 17.2327 5.83573C17.393 6.03135 17.5123 6.25726 17.5833 6.49996L18.2417 8.59996C18.394 9.08528 18.3524 9.61076 18.1255 10.066C17.8986 10.5213 17.5042 10.871 17.025 11.0416L16.8583 11.1C16.6132 11.1802 16.3915 11.3195 16.2128 11.5055C16.0341 11.6915 15.9038 11.9185 15.8333 12.1666C15.767 12.3973 15.7513 12.6396 15.7872 12.8769C15.8232 13.1142 15.91 13.341 16.0417 13.5416L16.2583 13.8583C16.5457 14.2753 16.6626 14.7865 16.5851 15.287C16.5076 15.7874 16.2416 16.2393 15.8417 16.55L14.1667 17.8416C13.9643 17.9964 13.7324 18.1081 13.4853 18.1698C13.2381 18.2316 12.9809 18.2421 12.7295 18.2007C12.4782 18.1594 12.2379 18.067 12.0236 17.9293C11.8093 17.7915 11.6254 17.6114 11.4833 17.4L11.3833 17.2583C11.2468 17.0532 11.0606 16.886 10.842 16.7723C10.6235 16.6587 10.3796 16.6022 10.1333 16.6083C9.89831 16.6144 9.66801 16.6756 9.46102 16.7871C9.25402 16.8985 9.07612 17.0571 8.94167 17.25L8.75 17.525C8.60787 17.7379 8.42364 17.9195 8.20865 18.0585C7.99367 18.1975 7.7525 18.291 7.5 18.3333C7.39192 18.3439 7.28307 18.3439 7.175 18.3333ZM3.66667 9.68329C4.13724 9.85109 4.56185 10.127 4.90633 10.4889C5.25081 10.8507 5.50553 11.2884 5.65 11.7666V11.8666C5.82994 12.3638 5.88903 12.8967 5.82238 13.4212C5.75572 13.9458 5.56524 14.4469 5.26667 14.8833C5.21396 14.9415 5.18478 15.0173 5.18478 15.0958C5.18478 15.1743 5.21396 15.2501 5.26667 15.3083L7.05833 16.6666C7.08171 16.685 7.10874 16.6981 7.13762 16.7052C7.16649 16.7122 7.19654 16.713 7.22575 16.7075C7.25495 16.702 7.28264 16.6903 7.30695 16.6731C7.33125 16.656 7.35161 16.6339 7.36667 16.6083L7.55833 16.3333C7.84741 15.9156 8.23345 15.5742 8.68338 15.3384C9.13331 15.1027 9.6337 14.9795 10.1417 14.9795C10.6496 14.9795 11.15 15.1027 11.6 15.3384C12.0499 15.5742 12.4359 15.9156 12.725 16.3333L12.825 16.4833C12.8608 16.5341 12.9143 16.5698 12.975 16.5833C13.0028 16.5874 13.0312 16.5858 13.0584 16.5787C13.0856 16.5715 13.1111 16.5589 13.1333 16.5416L14.85 15.2416C14.9101 15.1939 14.9496 15.125 14.9605 15.0491C14.9713 14.9731 14.9527 14.8959 14.9083 14.8333L14.6917 14.5166C14.4094 14.105 14.2231 13.6351 14.1467 13.1419C14.0702 12.6486 14.1055 12.1444 14.25 11.6666C14.3965 11.1644 14.6614 10.7048 15.0225 10.3263C15.3835 9.94777 15.8303 9.66153 16.325 9.49163L16.4917 9.43329C16.5611 9.40547 16.6168 9.35129 16.6464 9.2826C16.6761 9.2139 16.6774 9.13626 16.65 9.06663L16 6.99163C15.9844 6.95532 15.9616 6.92256 15.9329 6.89535C15.9043 6.86813 15.8704 6.84702 15.8333 6.83329C15.8088 6.82085 15.7817 6.81436 15.7542 6.81436C15.7267 6.81436 15.6995 6.82085 15.675 6.83329L15.3917 6.92496C14.9124 7.08314 14.4018 7.12256 13.9039 7.03982C13.4061 6.95708 12.9357 6.75466 12.5333 6.44996L12.5 6.37496C12.1139 6.08256 11.8008 5.70464 11.5854 5.27087C11.37 4.83709 11.258 4.35929 11.2583 3.87496V3.61663C11.2598 3.53631 11.2299 3.45857 11.175 3.39996C11.1271 3.35663 11.0646 3.33285 11 3.33329H8.88333C8.84938 3.33541 8.81619 3.34422 8.78565 3.3592C8.75511 3.37418 8.72783 3.39504 8.70538 3.42059C8.68292 3.44615 8.66574 3.47588 8.6548 3.50809C8.64387 3.5403 8.63941 3.57435 8.64167 3.60829V3.81663C8.64172 4.31416 8.52754 4.80506 8.30793 5.2515C8.08832 5.69794 7.76915 6.088 7.375 6.39163L7.26667 6.47496C6.84144 6.79871 6.3431 7.0129 5.81558 7.09864C5.28805 7.18438 4.74754 7.13905 4.24167 6.96663C4.20381 6.95392 4.16285 6.95392 4.125 6.96663C4.07797 6.9952 4.04255 7.03947 4.025 7.09163L3.33333 9.26662C3.30922 9.3407 3.31487 9.42125 3.34909 9.49124C3.3833 9.56122 3.4434 9.61515 3.51667 9.64162L3.66667 9.68329Z" fill="currentColor" fill-opacity="0.8"/>
<path d="M10 12.9167C9.42315 12.9167 8.85924 12.7456 8.3796 12.4252C7.89995 12.1047 7.52612 11.6492 7.30536 11.1162C7.08461 10.5833 7.02685 9.99681 7.13939 9.43103C7.25193 8.86525 7.52971 8.34555 7.93762 7.93765C8.34552 7.52974 8.86522 7.25196 9.431 7.13942C9.99678 7.02688 10.5832 7.08464 11.1162 7.30539C11.6491 7.52615 12.1046 7.89999 12.4251 8.37963C12.7456 8.85927 12.9167 9.42318 12.9167 10C12.9167 10.7736 12.6094 11.5155 12.0624 12.0624C11.5154 12.6094 10.7736 12.9167 10 12.9167ZM10 8.75004C9.75278 8.75004 9.51111 8.82335 9.30555 8.9607C9.09999 9.09806 8.93977 9.29328 8.84516 9.52169C8.75055 9.7501 8.7258 10.0014 8.77403 10.2439C8.82226 10.4864 8.94131 10.7091 9.11613 10.8839C9.29094 11.0587 9.51367 11.1778 9.75615 11.226C9.99862 11.2743 10.25 11.2495 10.4784 11.1549C10.7068 11.0603 10.902 10.9001 11.0393 10.6945C11.1767 10.4889 11.25 10.2473 11.25 10C11.25 9.66852 11.1183 9.35058 10.8839 9.11616C10.6495 8.88174 10.3315 8.75004 10 8.75004Z" fill="currentColor" fill-opacity="0.8"/>
</g>
<defs>
<clipPath id="clip0_414_219">
<rect width="20" height="20" fill="currentColor"/>
</clipPath>
</defs>
</svg>
