<svg width="16" height="16" viewBox="0 0 16 16" fill="none" xmlns="http://www.w3.org/2000/svg">
<path fill-rule="evenodd" clip-rule="evenodd" d="M6.7881 2.0087C7.00956 1.73698 7.34429 1.58303 7.69472 1.59172C8.00815 1.59949 8.24087 1.75636 8.3476 1.83233C8.4626 1.91418 8.592 2.02514 8.71413 2.12988C8.72089 2.13568 8.72763 2.14145 8.73434 2.14721L14.3815 6.98762C14.3861 6.99157 14.3908 6.9956 14.3956 6.99969C14.4641 7.05834 14.5492 7.13125 14.6186 7.20195C14.6982 7.28306 14.8165 7.41863 14.8877 7.61682C14.9767 7.8645 14.9767 8.13543 14.8877 8.38311C14.8165 8.5813 14.6982 8.71687 14.6186 8.79798C14.5492 8.86868 14.4641 8.94158 14.3956 9.00022C14.3908 9.00432 14.3861 9.00835 14.3815 9.01231L8.71413 13.87C8.592 13.9748 8.46261 14.0857 8.34761 14.1676C8.24087 14.2436 8.00815 14.4004 7.69472 14.4082C7.34429 14.4169 7.00956 14.2629 6.7881 13.9912C6.59003 13.7482 6.55768 13.4694 6.5459 13.3389C6.5332 13.1983 6.53324 13.0279 6.53328 12.867C6.53328 12.8581 6.53328 12.8492 6.53328 12.8404V10.9578C5.97195 11.0684 5.42522 11.2497 4.90648 11.4985C4.02293 11.9224 3.24142 12.5322 2.6155 13.2862C2.40019 13.5456 2.0454 13.6422 1.72833 13.5277C1.41126 13.4133 1.19995 13.1124 1.19995 12.7753V12.3673C1.20088 10.5874 1.85707 8.86967 3.04333 7.5427C3.97936 6.49563 5.1937 5.74942 6.53328 5.38312V3.15955C6.53328 3.15071 6.53328 3.14184 6.53328 3.13295C6.53324 2.97205 6.5332 2.80158 6.5459 2.66099C6.55768 2.53052 6.59003 2.25173 6.7881 2.0087ZM8.13328 3.73934V6.02305C8.13328 6.41169 7.85397 6.74411 7.47115 6.81108C6.22473 7.02914 5.08393 7.66074 4.23618 8.60905C3.68212 9.22884 3.27647 9.95791 3.04025 10.7413C3.41148 10.4822 3.80405 10.2528 4.21443 10.0559C5.1767 9.59432 6.21692 9.32087 7.27914 9.24882C7.50021 9.23382 7.7176 9.31118 7.87949 9.46247C8.04139 9.61375 8.13328 9.8254 8.13328 10.047V12.2606L13.104 7.99996L8.13328 3.73934ZM13.4767 7.6772C13.4768 7.67719 13.4767 7.67722 13.4767 7.6772ZM7.40912 12.8714C7.40912 12.8714 7.40943 12.8711 7.41005 12.8708Z" fill="currentColor" fill-opacity="0.8"/>
</svg>
