<svg width="20" height="20" viewBox="0 0 20 20" fill="none" xmlns="http://www.w3.org/2000/svg">
<path fill-rule="evenodd" clip-rule="evenodd" d="M14.9697 1.73743C15.9529 0.754187 17.5471 0.754189 18.5303 1.73744C19.5136 2.72069 19.5136 4.31485 18.5303 5.2981L10.5614 13.267C10.5456 13.2828 10.53 13.2984 10.5146 13.3139C10.2725 13.5564 10.0682 13.761 9.82235 13.9116C9.60612 14.0442 9.37039 14.1418 9.1238 14.201C8.84347 14.2683 8.55428 14.2681 8.21162 14.2678C8.18978 14.2678 8.16772 14.2678 8.14543 14.2678H6.74998C6.33576 14.2678 5.99998 13.932 5.99998 13.5178V12.1223C5.99998 12.1001 5.99996 12.078 5.99994 12.0561C5.99967 11.7135 5.99945 11.4243 6.06675 11.144C6.12595 10.8974 6.2236 10.6616 6.3561 10.4454C6.50674 10.1996 6.71138 9.99528 6.95387 9.75317C6.96933 9.73773 6.98494 9.72215 7.0007 9.70639L14.9697 1.73743ZM17.4697 2.7981C17.0722 2.40063 16.4278 2.40063 16.0303 2.7981L8.06136 10.767C7.74786 11.0805 7.68096 11.1543 7.63506 11.2292C7.5848 11.3112 7.54776 11.4006 7.52531 11.4941C7.5048 11.5796 7.49998 11.679 7.49998 12.1223V12.7678H8.14543C8.58878 12.7678 8.68822 12.7629 8.77364 12.7424C8.86717 12.72 8.95659 12.6829 9.0386 12.6327C9.1135 12.5868 9.18722 12.5199 9.50072 12.2064L17.4697 4.23744C17.8671 3.83998 17.8671 3.19556 17.4697 2.7981ZM5.71859 2.76777L9.25 2.76777C9.66421 2.76777 10 3.10355 10 3.51777C10 3.93198 9.66421 4.26777 9.25 4.26777H5.75C5.03756 4.26777 4.54833 4.26835 4.16908 4.29934C3.79858 4.32961 3.59956 4.38512 3.45552 4.45851C3.12623 4.62628 2.85852 4.894 2.69074 5.22328C2.61735 5.36732 2.56184 5.56635 2.53157 5.93685C2.50058 6.3161 2.5 6.80533 2.5 7.51777V14.5178C2.5 15.2302 2.50058 15.7194 2.53157 16.0987C2.56184 16.4692 2.61735 16.6682 2.69074 16.8122C2.85852 17.1415 3.12623 17.4092 3.45552 17.577C3.59956 17.6504 3.79858 17.7059 4.16908 17.7362C4.54833 17.7672 5.03756 17.7678 5.75 17.7678H12.75C13.4624 17.7678 13.9517 17.7672 14.3309 17.7362C14.7014 17.7059 14.9004 17.6504 15.0445 17.577C15.3738 17.4092 15.6415 17.1415 15.8093 16.8122C15.8827 16.6682 15.9382 16.4692 15.9684 16.0987C15.9994 15.7194 16 15.2302 16 14.5178V11.0178C16 10.6036 16.3358 10.2678 16.75 10.2678C17.1642 10.2678 17.5 10.6036 17.5 11.0178V14.5492C17.5 15.2225 17.5 15.7733 17.4634 16.2208C17.4256 16.6841 17.3449 17.1025 17.1458 17.4932C16.8342 18.1048 16.337 18.6019 15.7255 18.9135C15.3347 19.1126 14.9163 19.1934 14.4531 19.2312C14.0055 19.2678 13.4548 19.2678 12.7814 19.2678H5.71856C5.04519 19.2678 4.49449 19.2678 4.04693 19.2312C3.58367 19.1934 3.16527 19.1126 2.77453 18.9135C2.163 18.6019 1.66582 18.1048 1.35423 17.4932C1.15514 17.1025 1.0744 16.6841 1.03655 16.2208C0.999984 15.7733 0.999992 15.2226 1 14.5492V7.48635C0.999992 6.81297 0.999984 6.26226 1.03655 5.8147C1.0744 5.35144 1.15514 4.93304 1.35423 4.5423C1.66582 3.93077 2.163 3.43359 2.77453 3.122C3.16527 2.9229 3.58367 2.84217 4.04693 2.80432C4.4945 2.76775 5.04521 2.76776 5.71859 2.76777Z" fill="currentColor"/>
</svg>
